<svg xmlns="http://www.w3.org/2000/svg" width="608.258" height="601.2" viewBox="0 0 608.258 601.2">
  <g id="Group_1171" data-name="Group 1171" transform="translate(-1098.81 -2536)">
    <path id="Path_1330" data-name="Path 1330" d="M396.753,290.451c1.146-25.854,17.593-39.033,31.855-60.629,35.966-54.462,7.193-130.5-41.1-137.7C338.34,84.8,366.736,12.89,285.7,2.141,168.22-13.442,98.346,58.481,80.195,138.568c-12.513,55.2-3.485,66.144-40.911,94.906-80.548,61.9-23.256,187.926,46.823,201.251,15.849,3,42.139,10.306,127.565-12.118,56.391-14.8,108.068,12.734,150.2-24.259S395.6,316.385,396.753,290.451Z" transform="translate(1297.89 3108.269) rotate(-111)" fill="#ffecee"/>
    <path id="Path_1331" data-name="Path 1331" d="M396.753,290.451c1.146-25.854,17.593-39.033,31.855-60.629,35.966-54.462,7.193-130.5-41.1-137.7C338.34,84.8,366.736,12.89,285.7,2.141,168.22-13.442,98.346,58.481,80.195,138.568c-12.513,55.2-3.485,66.144-40.911,94.906-80.548,61.9-23.256,187.926,46.823,201.251,15.849,3,42.139,10.306,127.565-12.118,56.391-14.8,108.068,12.734,150.2-24.259S395.6,316.385,396.753,290.451Z" transform="translate(1259.241 3136.132) rotate(-111)" fill="none" stroke="#000" stroke-width="1.5"/>
  </g>
</svg>
