<svg xmlns="http://www.w3.org/2000/svg" width="608.259" height="601.201" viewBox="0 0 608.259 601.201">
  <g id="Group_1170" data-name="Group 1170" transform="translate(-212.86 -1759)">
    <path id="Path_1286" data-name="Path 1286" d="M396.754,147.837c1.146,25.854,17.593,39.033,31.855,60.629,35.966,54.462,7.193,130.5-41.1,137.7-49.166,7.323-20.77,79.236-101.806,89.985C168.22,451.73,98.346,379.807,80.195,299.721c-12.513-55.2-3.485-66.144-40.911-94.906C-41.264,142.912,16.028,16.888,86.107,3.564c15.849-3,42.139-10.306,127.565,12.118,56.391,14.8,108.068-12.734,150.2,24.259S395.6,121.9,396.754,147.837Z" transform="translate(212.86 2174.2) rotate(-69)" fill="#fff7d8"/>
    <path id="Path_1305" data-name="Path 1305" d="M396.754,147.837c1.146,25.854,17.593,39.033,31.855,60.629,35.966,54.462,7.193,130.5-41.1,137.7-49.166,7.323-20.77,79.236-101.806,89.985C168.22,451.73,98.346,379.807,80.195,299.721c-12.513-55.2-3.485-66.144-40.911-94.906C-41.264,142.912,16.028,16.888,86.107,3.564c15.849-3,42.139-10.306,127.565,12.118,56.391,14.8,108.068-12.734,150.2,24.259S395.6,121.9,396.754,147.837Z" transform="translate(251.51 2202.064) rotate(-69)" fill="none" stroke="#000" stroke-width="1.5"/>
  </g>
</svg>
