<?xml version="1.0" encoding="UTF-8"?>
<svg xmlns="http://www.w3.org/2000/svg" viewBox="0 0 1024 1024" width="1024" height="1024">
<defs><clipPath id="clip"><rect x="0" y="0" width="1024" height="1024" rx="225.28" ry="225.28"/></clipPath><linearGradient id="bgGradient" x1="0%" y1="0%" x2="100%" y2="100%"><stop offset="0%" stop-color="#5a6fe0"/><stop offset="50%" stop-color="#3d4db7"/><stop offset="95%" stop-color="#2a3996"/></linearGradient></defs><rect x="0" y="0" width="1024" height="1024" rx="225.28" ry="225.28" fill="url(#bgGradient)"/><g clip-path="url(#clip)"><g transform="matrix(1 0 -0.176327 1 366.64 153.6)"><g transform="translate(-61.44 51.2)"><path d="M55.71,0 H167.12 A55.71,55.71 0 0 1 222.82,55.71 V640.61 A55.71,55.71 0 0 1 167.12,696.32 H55.71 A55.71,55.71 0 0 1 0,640.61 V55.71 A55.71,55.71 0 0 1 55.71,0 Z M55.71,0 H423.36 A55.71,55.71 0 0 1 479.07,55.71 V139.26 A55.71,55.71 0 0 1 423.36,194.97 H55.71 A55.71,55.71 0 0 1 0,139.26 V55.71 A55.71,55.71 0 0 1 55.71,0 Z M55.71,250.68 H278.53 A55.71,55.71 0 0 1 334.23,306.38 V382.98 A55.71,55.71 0 0 1 278.53,438.68 H55.71 A55.71,55.71 0 0 1 0,382.98 V306.38 A55.71,55.71 0 0 1 55.71,250.68 Z" fill="#161f52"/></g><g transform="translate(-60.93 50.77)"><path d="M55.71,0 H167.12 A55.71,55.71 0 0 1 222.82,55.71 V640.61 A55.71,55.71 0 0 1 167.12,696.32 H55.71 A55.71,55.71 0 0 1 0,640.61 V55.71 A55.71,55.71 0 0 1 55.71,0 Z M55.71,0 H423.36 A55.71,55.71 0 0 1 479.07,55.71 V139.26 A55.71,55.71 0 0 1 423.36,194.97 H55.71 A55.71,55.71 0 0 1 0,139.26 V55.71 A55.71,55.71 0 0 1 55.71,0 Z M55.71,250.68 H278.53 A55.71,55.71 0 0 1 334.23,306.38 V382.98 A55.71,55.71 0 0 1 278.53,438.68 H55.71 A55.71,55.71 0 0 1 0,382.98 V306.38 A55.71,55.71 0 0 1 55.71,250.68 Z" fill="#161f52"/></g><g transform="translate(-60.42 50.35)"><path d="M55.71,0 H167.12 A55.71,55.71 0 0 1 222.82,55.71 V640.61 A55.71,55.71 0 0 1 167.12,696.32 H55.71 A55.71,55.71 0 0 1 0,640.61 V55.71 A55.71,55.71 0 0 1 55.71,0 Z M55.71,0 H423.36 A55.71,55.71 0 0 1 479.07,55.71 V139.26 A55.71,55.71 0 0 1 423.36,194.97 H55.71 A55.71,55.71 0 0 1 0,139.26 V55.71 A55.71,55.71 0 0 1 55.71,0 Z M55.71,250.68 H278.53 A55.71,55.71 0 0 1 334.23,306.38 V382.98 A55.71,55.71 0 0 1 278.53,438.68 H55.71 A55.71,55.71 0 0 1 0,382.98 V306.38 A55.71,55.71 0 0 1 55.71,250.68 Z" fill="#161f52"/></g><g transform="translate(-59.9 49.92)"><path d="M55.71,0 H167.12 A55.71,55.71 0 0 1 222.82,55.71 V640.61 A55.71,55.71 0 0 1 167.12,696.32 H55.71 A55.71,55.71 0 0 1 0,640.61 V55.71 A55.71,55.71 0 0 1 55.71,0 Z M55.71,0 H423.36 A55.71,55.71 0 0 1 479.07,55.71 V139.26 A55.71,55.71 0 0 1 423.36,194.97 H55.71 A55.71,55.71 0 0 1 0,139.26 V55.71 A55.71,55.71 0 0 1 55.71,0 Z M55.71,250.68 H278.53 A55.71,55.71 0 0 1 334.23,306.38 V382.98 A55.71,55.71 0 0 1 278.53,438.68 H55.71 A55.71,55.71 0 0 1 0,382.98 V306.38 A55.71,55.71 0 0 1 55.71,250.68 Z" fill="#161f52"/></g><g transform="translate(-59.39 49.49)"><path d="M55.71,0 H167.12 A55.71,55.71 0 0 1 222.82,55.71 V640.61 A55.71,55.71 0 0 1 167.12,696.32 H55.71 A55.71,55.71 0 0 1 0,640.61 V55.71 A55.71,55.71 0 0 1 55.71,0 Z M55.71,0 H423.36 A55.71,55.71 0 0 1 479.07,55.71 V139.26 A55.71,55.71 0 0 1 423.36,194.97 H55.71 A55.71,55.71 0 0 1 0,139.26 V55.71 A55.71,55.71 0 0 1 55.71,0 Z M55.71,250.68 H278.53 A55.71,55.71 0 0 1 334.23,306.38 V382.98 A55.71,55.71 0 0 1 278.53,438.68 H55.71 A55.71,55.71 0 0 1 0,382.98 V306.38 A55.71,55.71 0 0 1 55.71,250.68 Z" fill="#161f52"/></g><g transform="translate(-58.88 49.07)"><path d="M55.71,0 H167.12 A55.71,55.71 0 0 1 222.82,55.71 V640.61 A55.71,55.71 0 0 1 167.12,696.32 H55.71 A55.71,55.71 0 0 1 0,640.61 V55.71 A55.71,55.71 0 0 1 55.71,0 Z M55.71,0 H423.36 A55.71,55.71 0 0 1 479.07,55.71 V139.26 A55.71,55.71 0 0 1 423.36,194.97 H55.71 A55.71,55.71 0 0 1 0,139.26 V55.71 A55.71,55.71 0 0 1 55.71,0 Z M55.71,250.68 H278.53 A55.71,55.71 0 0 1 334.23,306.38 V382.98 A55.71,55.71 0 0 1 278.53,438.68 H55.71 A55.71,55.71 0 0 1 0,382.98 V306.38 A55.71,55.71 0 0 1 55.71,250.68 Z" fill="#161f52"/></g><g transform="translate(-58.37 48.64)"><path d="M55.71,0 H167.12 A55.71,55.71 0 0 1 222.82,55.71 V640.61 A55.71,55.71 0 0 1 167.12,696.32 H55.71 A55.71,55.71 0 0 1 0,640.61 V55.71 A55.71,55.71 0 0 1 55.71,0 Z M55.71,0 H423.36 A55.71,55.71 0 0 1 479.07,55.71 V139.26 A55.71,55.71 0 0 1 423.36,194.97 H55.71 A55.71,55.71 0 0 1 0,139.26 V55.71 A55.71,55.71 0 0 1 55.71,0 Z M55.71,250.68 H278.53 A55.71,55.71 0 0 1 334.23,306.38 V382.98 A55.71,55.71 0 0 1 278.53,438.68 H55.71 A55.71,55.71 0 0 1 0,382.98 V306.38 A55.71,55.71 0 0 1 55.71,250.68 Z" fill="#161f52"/></g><g transform="translate(-57.86 48.21)"><path d="M55.71,0 H167.12 A55.71,55.71 0 0 1 222.82,55.71 V640.61 A55.71,55.71 0 0 1 167.12,696.32 H55.71 A55.71,55.71 0 0 1 0,640.61 V55.71 A55.71,55.71 0 0 1 55.71,0 Z M55.71,0 H423.36 A55.71,55.71 0 0 1 479.07,55.71 V139.26 A55.71,55.71 0 0 1 423.36,194.97 H55.71 A55.71,55.71 0 0 1 0,139.26 V55.71 A55.71,55.71 0 0 1 55.71,0 Z M55.71,250.68 H278.53 A55.71,55.71 0 0 1 334.23,306.38 V382.98 A55.71,55.71 0 0 1 278.53,438.68 H55.71 A55.71,55.71 0 0 1 0,382.98 V306.38 A55.71,55.71 0 0 1 55.71,250.68 Z" fill="#161f52"/></g><g transform="translate(-57.34 47.79)"><path d="M55.71,0 H167.12 A55.71,55.71 0 0 1 222.82,55.71 V640.61 A55.71,55.71 0 0 1 167.12,696.32 H55.71 A55.71,55.71 0 0 1 0,640.61 V55.71 A55.71,55.71 0 0 1 55.71,0 Z M55.71,0 H423.36 A55.71,55.71 0 0 1 479.07,55.71 V139.26 A55.71,55.71 0 0 1 423.36,194.97 H55.71 A55.71,55.71 0 0 1 0,139.26 V55.71 A55.71,55.71 0 0 1 55.71,0 Z M55.71,250.68 H278.53 A55.71,55.71 0 0 1 334.23,306.38 V382.98 A55.71,55.71 0 0 1 278.53,438.68 H55.71 A55.71,55.71 0 0 1 0,382.98 V306.38 A55.71,55.71 0 0 1 55.71,250.68 Z" fill="#161f52"/></g><g transform="translate(-56.83 47.36)"><path d="M55.71,0 H167.12 A55.71,55.71 0 0 1 222.82,55.71 V640.61 A55.71,55.71 0 0 1 167.12,696.32 H55.71 A55.71,55.71 0 0 1 0,640.61 V55.71 A55.71,55.71 0 0 1 55.71,0 Z M55.71,0 H423.36 A55.71,55.71 0 0 1 479.07,55.71 V139.26 A55.71,55.71 0 0 1 423.36,194.97 H55.71 A55.71,55.71 0 0 1 0,139.26 V55.71 A55.71,55.71 0 0 1 55.71,0 Z M55.71,250.68 H278.53 A55.71,55.71 0 0 1 334.23,306.38 V382.98 A55.71,55.71 0 0 1 278.53,438.68 H55.71 A55.71,55.71 0 0 1 0,382.98 V306.38 A55.71,55.71 0 0 1 55.71,250.68 Z" fill="#161f52"/></g><g transform="translate(-56.32 46.93)"><path d="M55.71,0 H167.12 A55.71,55.71 0 0 1 222.82,55.71 V640.61 A55.71,55.71 0 0 1 167.12,696.32 H55.71 A55.71,55.71 0 0 1 0,640.61 V55.71 A55.71,55.71 0 0 1 55.71,0 Z M55.71,0 H423.36 A55.71,55.71 0 0 1 479.07,55.71 V139.26 A55.71,55.71 0 0 1 423.36,194.97 H55.71 A55.71,55.71 0 0 1 0,139.26 V55.71 A55.71,55.71 0 0 1 55.71,0 Z M55.71,250.68 H278.53 A55.71,55.71 0 0 1 334.23,306.38 V382.98 A55.71,55.71 0 0 1 278.53,438.68 H55.71 A55.71,55.71 0 0 1 0,382.98 V306.38 A55.71,55.71 0 0 1 55.71,250.68 Z" fill="#161f52"/></g><g transform="translate(-55.81 46.51)"><path d="M55.71,0 H167.12 A55.71,55.71 0 0 1 222.82,55.71 V640.61 A55.71,55.71 0 0 1 167.12,696.32 H55.71 A55.71,55.71 0 0 1 0,640.61 V55.71 A55.71,55.71 0 0 1 55.71,0 Z M55.71,0 H423.36 A55.71,55.71 0 0 1 479.07,55.71 V139.26 A55.71,55.71 0 0 1 423.36,194.97 H55.71 A55.71,55.71 0 0 1 0,139.26 V55.71 A55.71,55.71 0 0 1 55.71,0 Z M55.71,250.68 H278.53 A55.71,55.71 0 0 1 334.23,306.38 V382.98 A55.71,55.71 0 0 1 278.53,438.68 H55.71 A55.71,55.71 0 0 1 0,382.98 V306.38 A55.71,55.71 0 0 1 55.71,250.68 Z" fill="#161f52"/></g><g transform="translate(-55.3 46.08)"><path d="M55.71,0 H167.12 A55.71,55.71 0 0 1 222.82,55.71 V640.61 A55.71,55.71 0 0 1 167.12,696.32 H55.71 A55.71,55.71 0 0 1 0,640.61 V55.71 A55.71,55.71 0 0 1 55.71,0 Z M55.71,0 H423.36 A55.71,55.71 0 0 1 479.07,55.71 V139.26 A55.71,55.71 0 0 1 423.36,194.97 H55.71 A55.71,55.71 0 0 1 0,139.26 V55.71 A55.71,55.71 0 0 1 55.71,0 Z M55.71,250.68 H278.53 A55.71,55.71 0 0 1 334.23,306.38 V382.98 A55.71,55.71 0 0 1 278.53,438.68 H55.71 A55.71,55.71 0 0 1 0,382.98 V306.38 A55.71,55.71 0 0 1 55.71,250.68 Z" fill="#161f52"/></g><g transform="translate(-54.78 45.65)"><path d="M55.71,0 H167.12 A55.71,55.71 0 0 1 222.82,55.71 V640.61 A55.71,55.71 0 0 1 167.12,696.32 H55.71 A55.71,55.71 0 0 1 0,640.61 V55.71 A55.71,55.71 0 0 1 55.71,0 Z M55.71,0 H423.36 A55.71,55.71 0 0 1 479.07,55.71 V139.26 A55.71,55.71 0 0 1 423.36,194.97 H55.71 A55.71,55.71 0 0 1 0,139.26 V55.71 A55.71,55.71 0 0 1 55.71,0 Z M55.71,250.68 H278.53 A55.71,55.71 0 0 1 334.23,306.38 V382.98 A55.71,55.71 0 0 1 278.53,438.68 H55.71 A55.71,55.71 0 0 1 0,382.98 V306.38 A55.71,55.71 0 0 1 55.71,250.68 Z" fill="#161f52"/></g><g transform="translate(-54.27 45.23)"><path d="M55.71,0 H167.12 A55.71,55.71 0 0 1 222.82,55.71 V640.61 A55.71,55.71 0 0 1 167.12,696.32 H55.71 A55.71,55.71 0 0 1 0,640.61 V55.71 A55.71,55.71 0 0 1 55.71,0 Z M55.71,0 H423.36 A55.71,55.71 0 0 1 479.07,55.71 V139.26 A55.71,55.71 0 0 1 423.36,194.97 H55.71 A55.71,55.71 0 0 1 0,139.26 V55.71 A55.71,55.71 0 0 1 55.71,0 Z M55.71,250.68 H278.53 A55.71,55.71 0 0 1 334.23,306.38 V382.98 A55.71,55.71 0 0 1 278.53,438.68 H55.71 A55.71,55.71 0 0 1 0,382.98 V306.38 A55.71,55.71 0 0 1 55.71,250.68 Z" fill="#161f52"/></g><g transform="translate(-53.76 44.8)"><path d="M55.71,0 H167.12 A55.71,55.71 0 0 1 222.82,55.71 V640.61 A55.71,55.71 0 0 1 167.12,696.32 H55.71 A55.71,55.71 0 0 1 0,640.61 V55.71 A55.71,55.71 0 0 1 55.71,0 Z M55.71,0 H423.36 A55.71,55.71 0 0 1 479.07,55.71 V139.26 A55.71,55.71 0 0 1 423.36,194.97 H55.71 A55.71,55.71 0 0 1 0,139.26 V55.71 A55.71,55.71 0 0 1 55.71,0 Z M55.71,250.68 H278.53 A55.71,55.71 0 0 1 334.23,306.38 V382.98 A55.71,55.71 0 0 1 278.53,438.68 H55.71 A55.71,55.71 0 0 1 0,382.98 V306.38 A55.71,55.71 0 0 1 55.71,250.68 Z" fill="#161f52"/></g><g transform="translate(-53.25 44.37)"><path d="M55.71,0 H167.12 A55.71,55.71 0 0 1 222.82,55.71 V640.61 A55.71,55.71 0 0 1 167.12,696.32 H55.71 A55.71,55.71 0 0 1 0,640.61 V55.71 A55.71,55.71 0 0 1 55.71,0 Z M55.71,0 H423.36 A55.71,55.71 0 0 1 479.07,55.71 V139.26 A55.71,55.71 0 0 1 423.36,194.97 H55.71 A55.71,55.71 0 0 1 0,139.26 V55.71 A55.71,55.71 0 0 1 55.71,0 Z M55.71,250.68 H278.53 A55.71,55.71 0 0 1 334.23,306.38 V382.98 A55.71,55.71 0 0 1 278.53,438.68 H55.71 A55.71,55.71 0 0 1 0,382.98 V306.38 A55.71,55.71 0 0 1 55.71,250.68 Z" fill="#161f52"/></g><g transform="translate(-52.74 43.95)"><path d="M55.71,0 H167.12 A55.71,55.71 0 0 1 222.82,55.71 V640.61 A55.71,55.71 0 0 1 167.12,696.32 H55.71 A55.71,55.71 0 0 1 0,640.61 V55.71 A55.71,55.71 0 0 1 55.71,0 Z M55.71,0 H423.36 A55.71,55.71 0 0 1 479.07,55.71 V139.26 A55.71,55.71 0 0 1 423.36,194.97 H55.71 A55.71,55.71 0 0 1 0,139.26 V55.71 A55.71,55.71 0 0 1 55.71,0 Z M55.71,250.68 H278.53 A55.71,55.71 0 0 1 334.23,306.38 V382.98 A55.71,55.71 0 0 1 278.53,438.68 H55.71 A55.71,55.71 0 0 1 0,382.98 V306.38 A55.71,55.71 0 0 1 55.71,250.68 Z" fill="#161f52"/></g><g transform="translate(-52.22 43.52)"><path d="M55.71,0 H167.12 A55.71,55.71 0 0 1 222.82,55.71 V640.61 A55.71,55.71 0 0 1 167.12,696.32 H55.71 A55.71,55.71 0 0 1 0,640.61 V55.71 A55.71,55.71 0 0 1 55.71,0 Z M55.71,0 H423.36 A55.71,55.71 0 0 1 479.07,55.71 V139.26 A55.71,55.71 0 0 1 423.36,194.97 H55.71 A55.71,55.71 0 0 1 0,139.26 V55.71 A55.71,55.71 0 0 1 55.71,0 Z M55.71,250.68 H278.53 A55.71,55.71 0 0 1 334.23,306.38 V382.98 A55.71,55.71 0 0 1 278.53,438.68 H55.71 A55.71,55.71 0 0 1 0,382.98 V306.38 A55.71,55.71 0 0 1 55.71,250.68 Z" fill="#161f52"/></g><g transform="translate(-51.71 43.09)"><path d="M55.71,0 H167.12 A55.71,55.71 0 0 1 222.82,55.71 V640.61 A55.71,55.71 0 0 1 167.12,696.32 H55.71 A55.71,55.71 0 0 1 0,640.61 V55.71 A55.71,55.71 0 0 1 55.71,0 Z M55.71,0 H423.36 A55.71,55.71 0 0 1 479.07,55.71 V139.26 A55.71,55.71 0 0 1 423.36,194.97 H55.71 A55.71,55.71 0 0 1 0,139.26 V55.71 A55.71,55.71 0 0 1 55.71,0 Z M55.71,250.68 H278.53 A55.71,55.71 0 0 1 334.23,306.38 V382.98 A55.71,55.71 0 0 1 278.53,438.68 H55.71 A55.71,55.71 0 0 1 0,382.98 V306.38 A55.71,55.71 0 0 1 55.71,250.68 Z" fill="#161f52"/></g><g transform="translate(-51.2 42.67)"><path d="M55.71,0 H167.12 A55.71,55.71 0 0 1 222.82,55.71 V640.61 A55.71,55.71 0 0 1 167.12,696.32 H55.71 A55.71,55.71 0 0 1 0,640.61 V55.71 A55.71,55.71 0 0 1 55.71,0 Z M55.71,0 H423.36 A55.71,55.71 0 0 1 479.07,55.71 V139.26 A55.71,55.71 0 0 1 423.36,194.97 H55.71 A55.71,55.71 0 0 1 0,139.26 V55.71 A55.71,55.71 0 0 1 55.71,0 Z M55.71,250.68 H278.53 A55.71,55.71 0 0 1 334.23,306.38 V382.98 A55.71,55.71 0 0 1 278.53,438.68 H55.71 A55.71,55.71 0 0 1 0,382.98 V306.38 A55.71,55.71 0 0 1 55.71,250.68 Z" fill="#161f52"/></g><g transform="translate(-50.69 42.24)"><path d="M55.71,0 H167.12 A55.71,55.71 0 0 1 222.82,55.71 V640.61 A55.71,55.71 0 0 1 167.12,696.32 H55.71 A55.71,55.71 0 0 1 0,640.61 V55.71 A55.71,55.71 0 0 1 55.71,0 Z M55.71,0 H423.36 A55.71,55.71 0 0 1 479.07,55.71 V139.26 A55.71,55.71 0 0 1 423.36,194.97 H55.71 A55.71,55.71 0 0 1 0,139.26 V55.71 A55.71,55.71 0 0 1 55.71,0 Z M55.71,250.68 H278.53 A55.71,55.71 0 0 1 334.23,306.38 V382.98 A55.71,55.71 0 0 1 278.53,438.68 H55.71 A55.71,55.71 0 0 1 0,382.98 V306.38 A55.71,55.71 0 0 1 55.71,250.68 Z" fill="#161f52"/></g><g transform="translate(-50.18 41.81)"><path d="M55.71,0 H167.12 A55.71,55.71 0 0 1 222.82,55.71 V640.61 A55.71,55.71 0 0 1 167.12,696.32 H55.71 A55.71,55.71 0 0 1 0,640.61 V55.71 A55.71,55.71 0 0 1 55.71,0 Z M55.71,0 H423.36 A55.71,55.71 0 0 1 479.07,55.71 V139.26 A55.71,55.71 0 0 1 423.36,194.97 H55.71 A55.71,55.71 0 0 1 0,139.26 V55.71 A55.71,55.71 0 0 1 55.71,0 Z M55.71,250.68 H278.53 A55.71,55.71 0 0 1 334.23,306.38 V382.98 A55.71,55.71 0 0 1 278.53,438.68 H55.71 A55.71,55.71 0 0 1 0,382.98 V306.38 A55.71,55.71 0 0 1 55.71,250.68 Z" fill="#161f52"/></g><g transform="translate(-49.66 41.39)"><path d="M55.71,0 H167.12 A55.71,55.71 0 0 1 222.82,55.71 V640.61 A55.71,55.71 0 0 1 167.12,696.32 H55.71 A55.71,55.71 0 0 1 0,640.61 V55.71 A55.71,55.71 0 0 1 55.71,0 Z M55.71,0 H423.36 A55.71,55.71 0 0 1 479.07,55.71 V139.26 A55.71,55.71 0 0 1 423.36,194.97 H55.71 A55.71,55.71 0 0 1 0,139.26 V55.71 A55.71,55.71 0 0 1 55.71,0 Z M55.71,250.68 H278.53 A55.71,55.71 0 0 1 334.23,306.38 V382.98 A55.71,55.71 0 0 1 278.53,438.68 H55.71 A55.71,55.71 0 0 1 0,382.98 V306.38 A55.71,55.71 0 0 1 55.71,250.68 Z" fill="#161f52"/></g><g transform="translate(-49.15 40.96)"><path d="M55.71,0 H167.12 A55.71,55.71 0 0 1 222.82,55.71 V640.61 A55.71,55.71 0 0 1 167.12,696.32 H55.71 A55.71,55.71 0 0 1 0,640.61 V55.71 A55.71,55.71 0 0 1 55.71,0 Z M55.71,0 H423.36 A55.71,55.71 0 0 1 479.07,55.71 V139.26 A55.71,55.71 0 0 1 423.36,194.97 H55.71 A55.71,55.71 0 0 1 0,139.26 V55.71 A55.71,55.71 0 0 1 55.71,0 Z M55.71,250.68 H278.53 A55.71,55.71 0 0 1 334.23,306.38 V382.98 A55.71,55.71 0 0 1 278.53,438.68 H55.71 A55.71,55.71 0 0 1 0,382.98 V306.38 A55.71,55.71 0 0 1 55.71,250.68 Z" fill="#161f52"/></g><g transform="translate(-48.64 40.53)"><path d="M55.71,0 H167.12 A55.71,55.71 0 0 1 222.82,55.71 V640.61 A55.71,55.71 0 0 1 167.12,696.32 H55.71 A55.71,55.71 0 0 1 0,640.61 V55.71 A55.71,55.71 0 0 1 55.71,0 Z M55.71,0 H423.36 A55.71,55.71 0 0 1 479.07,55.71 V139.26 A55.71,55.71 0 0 1 423.36,194.97 H55.71 A55.71,55.71 0 0 1 0,139.26 V55.71 A55.71,55.71 0 0 1 55.71,0 Z M55.71,250.68 H278.53 A55.71,55.71 0 0 1 334.23,306.38 V382.98 A55.71,55.71 0 0 1 278.53,438.68 H55.71 A55.71,55.71 0 0 1 0,382.98 V306.38 A55.71,55.71 0 0 1 55.71,250.68 Z" fill="#161f52"/></g><g transform="translate(-48.13 40.11)"><path d="M55.71,0 H167.12 A55.71,55.71 0 0 1 222.82,55.71 V640.61 A55.71,55.71 0 0 1 167.12,696.32 H55.71 A55.71,55.71 0 0 1 0,640.61 V55.71 A55.71,55.71 0 0 1 55.71,0 Z M55.71,0 H423.36 A55.71,55.71 0 0 1 479.07,55.71 V139.26 A55.71,55.71 0 0 1 423.36,194.97 H55.71 A55.71,55.71 0 0 1 0,139.26 V55.71 A55.71,55.71 0 0 1 55.71,0 Z M55.71,250.68 H278.53 A55.71,55.71 0 0 1 334.23,306.38 V382.98 A55.71,55.71 0 0 1 278.53,438.68 H55.71 A55.71,55.71 0 0 1 0,382.98 V306.38 A55.71,55.71 0 0 1 55.71,250.68 Z" fill="#161f52"/></g><g transform="translate(-47.62 39.68)"><path d="M55.71,0 H167.12 A55.71,55.71 0 0 1 222.82,55.71 V640.61 A55.71,55.71 0 0 1 167.12,696.32 H55.71 A55.71,55.71 0 0 1 0,640.61 V55.71 A55.71,55.71 0 0 1 55.71,0 Z M55.71,0 H423.36 A55.71,55.71 0 0 1 479.07,55.71 V139.26 A55.71,55.71 0 0 1 423.36,194.97 H55.71 A55.71,55.71 0 0 1 0,139.26 V55.71 A55.71,55.71 0 0 1 55.71,0 Z M55.71,250.68 H278.53 A55.71,55.71 0 0 1 334.23,306.38 V382.98 A55.71,55.71 0 0 1 278.53,438.68 H55.71 A55.71,55.71 0 0 1 0,382.98 V306.38 A55.71,55.71 0 0 1 55.71,250.68 Z" fill="#161f52"/></g><g transform="translate(-47.1 39.25)"><path d="M55.71,0 H167.12 A55.71,55.71 0 0 1 222.82,55.71 V640.61 A55.71,55.71 0 0 1 167.12,696.32 H55.71 A55.71,55.71 0 0 1 0,640.61 V55.71 A55.71,55.71 0 0 1 55.71,0 Z M55.71,0 H423.36 A55.71,55.71 0 0 1 479.07,55.71 V139.26 A55.71,55.71 0 0 1 423.36,194.97 H55.71 A55.71,55.71 0 0 1 0,139.26 V55.71 A55.71,55.71 0 0 1 55.71,0 Z M55.71,250.68 H278.53 A55.71,55.71 0 0 1 334.23,306.38 V382.98 A55.71,55.71 0 0 1 278.53,438.68 H55.71 A55.71,55.71 0 0 1 0,382.98 V306.38 A55.71,55.71 0 0 1 55.71,250.68 Z" fill="#161f52"/></g><g transform="translate(-46.59 38.83)"><path d="M55.71,0 H167.12 A55.71,55.71 0 0 1 222.82,55.71 V640.61 A55.71,55.71 0 0 1 167.12,696.32 H55.71 A55.71,55.71 0 0 1 0,640.61 V55.71 A55.71,55.71 0 0 1 55.71,0 Z M55.71,0 H423.36 A55.71,55.71 0 0 1 479.07,55.71 V139.26 A55.71,55.71 0 0 1 423.36,194.97 H55.71 A55.71,55.71 0 0 1 0,139.26 V55.71 A55.71,55.71 0 0 1 55.71,0 Z M55.71,250.68 H278.53 A55.71,55.71 0 0 1 334.23,306.38 V382.98 A55.71,55.71 0 0 1 278.53,438.68 H55.71 A55.71,55.71 0 0 1 0,382.98 V306.38 A55.71,55.71 0 0 1 55.71,250.68 Z" fill="#161f52"/></g><g transform="translate(-46.08 38.4)"><path d="M55.71,0 H167.12 A55.71,55.71 0 0 1 222.82,55.71 V640.61 A55.71,55.71 0 0 1 167.12,696.32 H55.71 A55.71,55.71 0 0 1 0,640.61 V55.71 A55.71,55.71 0 0 1 55.71,0 Z M55.71,0 H423.36 A55.71,55.71 0 0 1 479.07,55.71 V139.26 A55.71,55.71 0 0 1 423.36,194.97 H55.71 A55.71,55.71 0 0 1 0,139.26 V55.71 A55.71,55.71 0 0 1 55.71,0 Z M55.71,250.68 H278.53 A55.71,55.71 0 0 1 334.23,306.38 V382.98 A55.71,55.71 0 0 1 278.53,438.68 H55.71 A55.71,55.71 0 0 1 0,382.98 V306.38 A55.71,55.71 0 0 1 55.71,250.68 Z" fill="#161f52"/></g><g transform="translate(-45.57 37.97)"><path d="M55.71,0 H167.12 A55.71,55.71 0 0 1 222.82,55.71 V640.61 A55.71,55.71 0 0 1 167.12,696.32 H55.71 A55.71,55.71 0 0 1 0,640.61 V55.71 A55.71,55.71 0 0 1 55.71,0 Z M55.71,0 H423.36 A55.71,55.71 0 0 1 479.07,55.71 V139.26 A55.71,55.71 0 0 1 423.36,194.97 H55.71 A55.71,55.71 0 0 1 0,139.26 V55.71 A55.71,55.71 0 0 1 55.71,0 Z M55.71,250.68 H278.53 A55.71,55.71 0 0 1 334.23,306.38 V382.98 A55.71,55.71 0 0 1 278.53,438.68 H55.71 A55.71,55.71 0 0 1 0,382.98 V306.38 A55.71,55.71 0 0 1 55.71,250.68 Z" fill="#161f52"/></g><g transform="translate(-45.06 37.55)"><path d="M55.71,0 H167.12 A55.71,55.71 0 0 1 222.82,55.71 V640.61 A55.71,55.71 0 0 1 167.12,696.32 H55.71 A55.71,55.71 0 0 1 0,640.61 V55.71 A55.71,55.71 0 0 1 55.71,0 Z M55.71,0 H423.36 A55.71,55.71 0 0 1 479.07,55.71 V139.26 A55.71,55.71 0 0 1 423.36,194.97 H55.71 A55.71,55.71 0 0 1 0,139.26 V55.71 A55.71,55.71 0 0 1 55.71,0 Z M55.71,250.68 H278.53 A55.71,55.71 0 0 1 334.23,306.38 V382.98 A55.71,55.71 0 0 1 278.53,438.68 H55.71 A55.71,55.71 0 0 1 0,382.98 V306.38 A55.71,55.71 0 0 1 55.71,250.68 Z" fill="#161f52"/></g><g transform="translate(-44.54 37.12)"><path d="M55.71,0 H167.12 A55.71,55.71 0 0 1 222.82,55.71 V640.61 A55.71,55.71 0 0 1 167.12,696.32 H55.71 A55.71,55.71 0 0 1 0,640.61 V55.71 A55.71,55.71 0 0 1 55.71,0 Z M55.71,0 H423.36 A55.71,55.71 0 0 1 479.07,55.71 V139.26 A55.71,55.71 0 0 1 423.36,194.97 H55.71 A55.71,55.71 0 0 1 0,139.26 V55.71 A55.71,55.71 0 0 1 55.71,0 Z M55.71,250.68 H278.53 A55.71,55.71 0 0 1 334.23,306.38 V382.98 A55.71,55.71 0 0 1 278.53,438.68 H55.71 A55.71,55.71 0 0 1 0,382.98 V306.38 A55.71,55.71 0 0 1 55.71,250.68 Z" fill="#161f52"/></g><g transform="translate(-44.03 36.69)"><path d="M55.71,0 H167.12 A55.71,55.71 0 0 1 222.82,55.71 V640.61 A55.71,55.71 0 0 1 167.12,696.32 H55.71 A55.71,55.71 0 0 1 0,640.61 V55.71 A55.71,55.71 0 0 1 55.71,0 Z M55.71,0 H423.36 A55.71,55.71 0 0 1 479.07,55.71 V139.26 A55.71,55.71 0 0 1 423.36,194.97 H55.71 A55.71,55.71 0 0 1 0,139.26 V55.71 A55.71,55.71 0 0 1 55.71,0 Z M55.71,250.68 H278.53 A55.71,55.71 0 0 1 334.23,306.38 V382.98 A55.71,55.71 0 0 1 278.53,438.68 H55.71 A55.71,55.71 0 0 1 0,382.98 V306.38 A55.71,55.71 0 0 1 55.71,250.68 Z" fill="#161f52"/></g><g transform="translate(-43.52 36.27)"><path d="M55.71,0 H167.12 A55.71,55.71 0 0 1 222.82,55.71 V640.61 A55.71,55.71 0 0 1 167.12,696.32 H55.71 A55.71,55.71 0 0 1 0,640.61 V55.71 A55.71,55.71 0 0 1 55.71,0 Z M55.71,0 H423.36 A55.71,55.71 0 0 1 479.07,55.71 V139.26 A55.71,55.71 0 0 1 423.36,194.97 H55.71 A55.71,55.71 0 0 1 0,139.26 V55.71 A55.71,55.71 0 0 1 55.71,0 Z M55.71,250.68 H278.53 A55.71,55.71 0 0 1 334.23,306.38 V382.98 A55.71,55.71 0 0 1 278.53,438.68 H55.71 A55.71,55.71 0 0 1 0,382.98 V306.38 A55.71,55.71 0 0 1 55.71,250.68 Z" fill="#161f52"/></g><g transform="translate(-43.01 35.84)"><path d="M55.71,0 H167.12 A55.71,55.71 0 0 1 222.82,55.71 V640.61 A55.71,55.71 0 0 1 167.12,696.32 H55.71 A55.71,55.71 0 0 1 0,640.61 V55.71 A55.71,55.71 0 0 1 55.71,0 Z M55.71,0 H423.36 A55.71,55.71 0 0 1 479.07,55.71 V139.26 A55.71,55.71 0 0 1 423.36,194.97 H55.71 A55.71,55.71 0 0 1 0,139.26 V55.71 A55.71,55.71 0 0 1 55.71,0 Z M55.71,250.68 H278.53 A55.71,55.71 0 0 1 334.23,306.38 V382.98 A55.71,55.71 0 0 1 278.53,438.68 H55.71 A55.71,55.71 0 0 1 0,382.98 V306.38 A55.71,55.71 0 0 1 55.71,250.68 Z" fill="#161f52"/></g><g transform="translate(-42.5 35.41)"><path d="M55.71,0 H167.12 A55.71,55.71 0 0 1 222.82,55.71 V640.61 A55.71,55.71 0 0 1 167.12,696.32 H55.71 A55.71,55.71 0 0 1 0,640.61 V55.71 A55.71,55.71 0 0 1 55.71,0 Z M55.71,0 H423.36 A55.71,55.71 0 0 1 479.07,55.71 V139.26 A55.71,55.71 0 0 1 423.36,194.97 H55.71 A55.71,55.71 0 0 1 0,139.26 V55.71 A55.71,55.71 0 0 1 55.71,0 Z M55.71,250.68 H278.53 A55.71,55.71 0 0 1 334.23,306.38 V382.98 A55.71,55.71 0 0 1 278.53,438.68 H55.71 A55.71,55.71 0 0 1 0,382.98 V306.38 A55.71,55.71 0 0 1 55.71,250.68 Z" fill="#161f52"/></g><g transform="translate(-41.98 34.99)"><path d="M55.71,0 H167.12 A55.71,55.71 0 0 1 222.82,55.71 V640.61 A55.71,55.71 0 0 1 167.12,696.32 H55.71 A55.71,55.71 0 0 1 0,640.61 V55.71 A55.71,55.71 0 0 1 55.71,0 Z M55.71,0 H423.36 A55.71,55.71 0 0 1 479.07,55.71 V139.26 A55.71,55.71 0 0 1 423.36,194.97 H55.71 A55.71,55.71 0 0 1 0,139.26 V55.71 A55.71,55.71 0 0 1 55.71,0 Z M55.71,250.68 H278.53 A55.71,55.71 0 0 1 334.23,306.38 V382.98 A55.71,55.71 0 0 1 278.53,438.68 H55.71 A55.71,55.71 0 0 1 0,382.98 V306.38 A55.71,55.71 0 0 1 55.71,250.68 Z" fill="#161f52"/></g><g transform="translate(-41.47 34.56)"><path d="M55.71,0 H167.12 A55.71,55.71 0 0 1 222.82,55.71 V640.61 A55.71,55.71 0 0 1 167.12,696.32 H55.71 A55.71,55.71 0 0 1 0,640.61 V55.71 A55.71,55.71 0 0 1 55.71,0 Z M55.71,0 H423.36 A55.71,55.71 0 0 1 479.07,55.71 V139.26 A55.71,55.71 0 0 1 423.36,194.97 H55.71 A55.71,55.71 0 0 1 0,139.26 V55.71 A55.71,55.71 0 0 1 55.71,0 Z M55.71,250.68 H278.53 A55.71,55.71 0 0 1 334.23,306.38 V382.98 A55.71,55.71 0 0 1 278.53,438.68 H55.71 A55.71,55.71 0 0 1 0,382.98 V306.38 A55.71,55.71 0 0 1 55.71,250.68 Z" fill="#161f52"/></g><g transform="translate(-40.96 34.13)"><path d="M55.71,0 H167.12 A55.71,55.71 0 0 1 222.82,55.71 V640.61 A55.71,55.71 0 0 1 167.12,696.32 H55.71 A55.71,55.71 0 0 1 0,640.61 V55.71 A55.71,55.71 0 0 1 55.71,0 Z M55.71,0 H423.36 A55.71,55.71 0 0 1 479.07,55.71 V139.26 A55.71,55.71 0 0 1 423.36,194.97 H55.71 A55.71,55.71 0 0 1 0,139.26 V55.71 A55.71,55.71 0 0 1 55.71,0 Z M55.71,250.68 H278.53 A55.71,55.71 0 0 1 334.23,306.38 V382.98 A55.71,55.71 0 0 1 278.53,438.68 H55.71 A55.71,55.71 0 0 1 0,382.98 V306.38 A55.71,55.71 0 0 1 55.71,250.68 Z" fill="#161f52"/></g><g transform="translate(-40.45 33.71)"><path d="M55.71,0 H167.12 A55.71,55.71 0 0 1 222.82,55.71 V640.61 A55.71,55.71 0 0 1 167.12,696.32 H55.71 A55.71,55.71 0 0 1 0,640.61 V55.71 A55.71,55.71 0 0 1 55.71,0 Z M55.71,0 H423.36 A55.71,55.71 0 0 1 479.07,55.71 V139.26 A55.71,55.71 0 0 1 423.36,194.97 H55.71 A55.71,55.71 0 0 1 0,139.26 V55.71 A55.71,55.71 0 0 1 55.71,0 Z M55.71,250.68 H278.53 A55.71,55.71 0 0 1 334.23,306.38 V382.98 A55.71,55.71 0 0 1 278.53,438.68 H55.71 A55.71,55.71 0 0 1 0,382.98 V306.38 A55.71,55.71 0 0 1 55.71,250.68 Z" fill="#161f52"/></g><g transform="translate(-39.94 33.28)"><path d="M55.71,0 H167.12 A55.71,55.71 0 0 1 222.82,55.71 V640.61 A55.71,55.71 0 0 1 167.12,696.32 H55.71 A55.71,55.71 0 0 1 0,640.61 V55.71 A55.71,55.71 0 0 1 55.71,0 Z M55.71,0 H423.36 A55.71,55.71 0 0 1 479.07,55.71 V139.26 A55.71,55.71 0 0 1 423.36,194.97 H55.71 A55.71,55.71 0 0 1 0,139.26 V55.71 A55.71,55.71 0 0 1 55.71,0 Z M55.71,250.68 H278.53 A55.71,55.71 0 0 1 334.23,306.38 V382.98 A55.71,55.71 0 0 1 278.53,438.68 H55.71 A55.71,55.71 0 0 1 0,382.98 V306.38 A55.71,55.71 0 0 1 55.71,250.68 Z" fill="#161f52"/></g><g transform="translate(-39.42 32.85)"><path d="M55.71,0 H167.12 A55.71,55.71 0 0 1 222.82,55.71 V640.61 A55.71,55.71 0 0 1 167.12,696.32 H55.71 A55.71,55.71 0 0 1 0,640.61 V55.71 A55.71,55.71 0 0 1 55.71,0 Z M55.71,0 H423.36 A55.71,55.71 0 0 1 479.07,55.71 V139.26 A55.71,55.71 0 0 1 423.36,194.97 H55.71 A55.71,55.71 0 0 1 0,139.26 V55.71 A55.71,55.71 0 0 1 55.71,0 Z M55.71,250.68 H278.53 A55.71,55.71 0 0 1 334.23,306.38 V382.98 A55.71,55.71 0 0 1 278.53,438.68 H55.71 A55.71,55.71 0 0 1 0,382.98 V306.38 A55.71,55.71 0 0 1 55.71,250.68 Z" fill="#161f52"/></g><g transform="translate(-38.91 32.43)"><path d="M55.71,0 H167.12 A55.71,55.71 0 0 1 222.82,55.71 V640.61 A55.71,55.71 0 0 1 167.12,696.32 H55.71 A55.71,55.71 0 0 1 0,640.61 V55.71 A55.71,55.71 0 0 1 55.71,0 Z M55.71,0 H423.36 A55.71,55.71 0 0 1 479.07,55.71 V139.26 A55.71,55.71 0 0 1 423.36,194.97 H55.71 A55.71,55.71 0 0 1 0,139.26 V55.71 A55.71,55.71 0 0 1 55.71,0 Z M55.71,250.68 H278.53 A55.71,55.71 0 0 1 334.23,306.38 V382.98 A55.71,55.71 0 0 1 278.53,438.68 H55.71 A55.71,55.71 0 0 1 0,382.98 V306.38 A55.71,55.71 0 0 1 55.71,250.68 Z" fill="#161f52"/></g><g transform="translate(-38.4 32)"><path d="M55.71,0 H167.12 A55.71,55.71 0 0 1 222.82,55.71 V640.61 A55.71,55.71 0 0 1 167.12,696.32 H55.71 A55.71,55.71 0 0 1 0,640.61 V55.71 A55.71,55.71 0 0 1 55.71,0 Z M55.71,0 H423.36 A55.71,55.71 0 0 1 479.07,55.71 V139.26 A55.71,55.71 0 0 1 423.36,194.97 H55.71 A55.71,55.71 0 0 1 0,139.26 V55.71 A55.71,55.71 0 0 1 55.71,0 Z M55.71,250.68 H278.53 A55.71,55.71 0 0 1 334.23,306.38 V382.98 A55.71,55.71 0 0 1 278.53,438.68 H55.71 A55.71,55.71 0 0 1 0,382.98 V306.38 A55.71,55.71 0 0 1 55.71,250.68 Z" fill="#161f52"/></g><g transform="translate(-37.89 31.57)"><path d="M55.71,0 H167.12 A55.71,55.71 0 0 1 222.82,55.71 V640.61 A55.71,55.71 0 0 1 167.12,696.32 H55.71 A55.71,55.71 0 0 1 0,640.61 V55.71 A55.71,55.71 0 0 1 55.71,0 Z M55.71,0 H423.36 A55.71,55.71 0 0 1 479.07,55.71 V139.26 A55.71,55.71 0 0 1 423.36,194.97 H55.71 A55.71,55.71 0 0 1 0,139.26 V55.71 A55.71,55.71 0 0 1 55.71,0 Z M55.71,250.68 H278.53 A55.71,55.71 0 0 1 334.23,306.38 V382.98 A55.71,55.71 0 0 1 278.53,438.68 H55.71 A55.71,55.71 0 0 1 0,382.98 V306.38 A55.71,55.71 0 0 1 55.71,250.68 Z" fill="#161f52"/></g><g transform="translate(-37.38 31.15)"><path d="M55.71,0 H167.12 A55.71,55.71 0 0 1 222.82,55.71 V640.61 A55.71,55.71 0 0 1 167.12,696.32 H55.71 A55.71,55.71 0 0 1 0,640.61 V55.71 A55.71,55.71 0 0 1 55.71,0 Z M55.71,0 H423.36 A55.71,55.71 0 0 1 479.07,55.71 V139.26 A55.71,55.71 0 0 1 423.36,194.97 H55.71 A55.71,55.71 0 0 1 0,139.26 V55.71 A55.71,55.71 0 0 1 55.71,0 Z M55.71,250.68 H278.53 A55.71,55.71 0 0 1 334.23,306.38 V382.98 A55.71,55.71 0 0 1 278.53,438.68 H55.71 A55.71,55.71 0 0 1 0,382.98 V306.38 A55.71,55.71 0 0 1 55.71,250.68 Z" fill="#161f52"/></g><g transform="translate(-36.86 30.72)"><path d="M55.71,0 H167.12 A55.71,55.71 0 0 1 222.82,55.71 V640.61 A55.71,55.71 0 0 1 167.12,696.32 H55.71 A55.71,55.71 0 0 1 0,640.61 V55.71 A55.71,55.71 0 0 1 55.71,0 Z M55.71,0 H423.36 A55.71,55.71 0 0 1 479.07,55.71 V139.26 A55.71,55.71 0 0 1 423.36,194.97 H55.71 A55.71,55.71 0 0 1 0,139.26 V55.71 A55.71,55.71 0 0 1 55.71,0 Z M55.71,250.68 H278.53 A55.71,55.71 0 0 1 334.23,306.38 V382.98 A55.71,55.71 0 0 1 278.53,438.68 H55.71 A55.71,55.71 0 0 1 0,382.98 V306.38 A55.71,55.71 0 0 1 55.71,250.68 Z" fill="#161f52"/></g><g transform="translate(-36.35 30.29)"><path d="M55.71,0 H167.12 A55.71,55.71 0 0 1 222.82,55.71 V640.61 A55.71,55.71 0 0 1 167.12,696.32 H55.71 A55.71,55.71 0 0 1 0,640.61 V55.71 A55.71,55.71 0 0 1 55.71,0 Z M55.71,0 H423.36 A55.71,55.71 0 0 1 479.07,55.71 V139.26 A55.71,55.71 0 0 1 423.36,194.97 H55.71 A55.71,55.71 0 0 1 0,139.26 V55.71 A55.71,55.71 0 0 1 55.71,0 Z M55.71,250.68 H278.53 A55.71,55.71 0 0 1 334.23,306.38 V382.98 A55.71,55.71 0 0 1 278.53,438.68 H55.71 A55.71,55.71 0 0 1 0,382.98 V306.38 A55.71,55.71 0 0 1 55.71,250.68 Z" fill="#161f52"/></g><g transform="translate(-35.84 29.87)"><path d="M55.71,0 H167.12 A55.71,55.71 0 0 1 222.82,55.71 V640.61 A55.71,55.71 0 0 1 167.12,696.32 H55.71 A55.71,55.71 0 0 1 0,640.61 V55.71 A55.71,55.71 0 0 1 55.71,0 Z M55.71,0 H423.36 A55.71,55.71 0 0 1 479.07,55.71 V139.26 A55.71,55.71 0 0 1 423.36,194.97 H55.71 A55.71,55.71 0 0 1 0,139.26 V55.71 A55.71,55.71 0 0 1 55.71,0 Z M55.71,250.68 H278.53 A55.71,55.71 0 0 1 334.23,306.38 V382.98 A55.71,55.71 0 0 1 278.53,438.68 H55.71 A55.71,55.71 0 0 1 0,382.98 V306.38 A55.71,55.71 0 0 1 55.71,250.68 Z" fill="#161f52"/></g><g transform="translate(-35.33 29.44)"><path d="M55.71,0 H167.12 A55.71,55.71 0 0 1 222.82,55.71 V640.61 A55.71,55.71 0 0 1 167.12,696.32 H55.71 A55.71,55.71 0 0 1 0,640.61 V55.71 A55.71,55.71 0 0 1 55.71,0 Z M55.71,0 H423.36 A55.71,55.71 0 0 1 479.07,55.71 V139.26 A55.71,55.71 0 0 1 423.36,194.97 H55.71 A55.71,55.71 0 0 1 0,139.26 V55.71 A55.71,55.71 0 0 1 55.71,0 Z M55.71,250.68 H278.53 A55.71,55.71 0 0 1 334.23,306.38 V382.98 A55.71,55.71 0 0 1 278.53,438.68 H55.71 A55.71,55.71 0 0 1 0,382.98 V306.38 A55.71,55.71 0 0 1 55.71,250.68 Z" fill="#161f52"/></g><g transform="translate(-34.82 29.01)"><path d="M55.71,0 H167.12 A55.71,55.71 0 0 1 222.82,55.71 V640.61 A55.71,55.71 0 0 1 167.12,696.32 H55.71 A55.71,55.71 0 0 1 0,640.61 V55.71 A55.71,55.71 0 0 1 55.71,0 Z M55.71,0 H423.36 A55.71,55.71 0 0 1 479.07,55.71 V139.26 A55.71,55.71 0 0 1 423.36,194.97 H55.71 A55.71,55.71 0 0 1 0,139.26 V55.71 A55.71,55.71 0 0 1 55.71,0 Z M55.71,250.68 H278.53 A55.71,55.71 0 0 1 334.23,306.38 V382.98 A55.71,55.71 0 0 1 278.53,438.68 H55.71 A55.71,55.71 0 0 1 0,382.98 V306.38 A55.71,55.71 0 0 1 55.71,250.68 Z" fill="#161f52"/></g><g transform="translate(-34.3 28.59)"><path d="M55.71,0 H167.12 A55.71,55.71 0 0 1 222.82,55.71 V640.61 A55.71,55.71 0 0 1 167.12,696.32 H55.71 A55.71,55.71 0 0 1 0,640.61 V55.71 A55.71,55.71 0 0 1 55.71,0 Z M55.71,0 H423.36 A55.71,55.71 0 0 1 479.07,55.71 V139.26 A55.71,55.71 0 0 1 423.36,194.97 H55.71 A55.71,55.71 0 0 1 0,139.26 V55.71 A55.71,55.71 0 0 1 55.71,0 Z M55.71,250.68 H278.53 A55.71,55.71 0 0 1 334.23,306.38 V382.98 A55.71,55.71 0 0 1 278.53,438.68 H55.71 A55.71,55.71 0 0 1 0,382.98 V306.38 A55.71,55.71 0 0 1 55.71,250.68 Z" fill="#161f52"/></g><g transform="translate(-33.79 28.16)"><path d="M55.71,0 H167.12 A55.71,55.71 0 0 1 222.82,55.71 V640.61 A55.71,55.71 0 0 1 167.12,696.32 H55.71 A55.71,55.71 0 0 1 0,640.61 V55.71 A55.71,55.71 0 0 1 55.71,0 Z M55.71,0 H423.36 A55.71,55.71 0 0 1 479.07,55.71 V139.26 A55.71,55.71 0 0 1 423.36,194.97 H55.71 A55.71,55.71 0 0 1 0,139.26 V55.71 A55.71,55.71 0 0 1 55.71,0 Z M55.71,250.68 H278.53 A55.71,55.71 0 0 1 334.23,306.38 V382.98 A55.71,55.71 0 0 1 278.53,438.68 H55.71 A55.71,55.71 0 0 1 0,382.98 V306.38 A55.71,55.71 0 0 1 55.71,250.68 Z" fill="#161f52"/></g><g transform="translate(-33.28 27.73)"><path d="M55.71,0 H167.12 A55.71,55.71 0 0 1 222.82,55.71 V640.61 A55.71,55.71 0 0 1 167.12,696.32 H55.71 A55.71,55.71 0 0 1 0,640.61 V55.71 A55.71,55.71 0 0 1 55.71,0 Z M55.71,0 H423.36 A55.71,55.71 0 0 1 479.07,55.71 V139.26 A55.71,55.71 0 0 1 423.36,194.97 H55.71 A55.71,55.71 0 0 1 0,139.26 V55.71 A55.71,55.71 0 0 1 55.71,0 Z M55.71,250.68 H278.53 A55.71,55.71 0 0 1 334.23,306.38 V382.98 A55.71,55.71 0 0 1 278.53,438.68 H55.71 A55.71,55.71 0 0 1 0,382.98 V306.38 A55.71,55.71 0 0 1 55.71,250.68 Z" fill="#161f52"/></g><g transform="translate(-32.77 27.31)"><path d="M55.71,0 H167.12 A55.71,55.71 0 0 1 222.82,55.71 V640.61 A55.71,55.71 0 0 1 167.12,696.32 H55.71 A55.71,55.71 0 0 1 0,640.61 V55.71 A55.71,55.71 0 0 1 55.71,0 Z M55.71,0 H423.36 A55.71,55.71 0 0 1 479.07,55.71 V139.26 A55.71,55.71 0 0 1 423.36,194.97 H55.71 A55.71,55.71 0 0 1 0,139.26 V55.71 A55.71,55.71 0 0 1 55.71,0 Z M55.71,250.68 H278.53 A55.71,55.71 0 0 1 334.23,306.38 V382.98 A55.71,55.71 0 0 1 278.53,438.68 H55.71 A55.71,55.71 0 0 1 0,382.98 V306.38 A55.71,55.71 0 0 1 55.71,250.68 Z" fill="#161f52"/></g><g transform="translate(-32.26 26.88)"><path d="M55.71,0 H167.12 A55.71,55.71 0 0 1 222.82,55.71 V640.61 A55.71,55.71 0 0 1 167.12,696.32 H55.71 A55.71,55.71 0 0 1 0,640.61 V55.71 A55.71,55.71 0 0 1 55.71,0 Z M55.71,0 H423.36 A55.71,55.71 0 0 1 479.07,55.71 V139.26 A55.71,55.71 0 0 1 423.36,194.97 H55.71 A55.71,55.71 0 0 1 0,139.26 V55.71 A55.71,55.71 0 0 1 55.71,0 Z M55.71,250.68 H278.53 A55.71,55.71 0 0 1 334.23,306.38 V382.98 A55.71,55.71 0 0 1 278.53,438.68 H55.71 A55.71,55.71 0 0 1 0,382.98 V306.38 A55.71,55.71 0 0 1 55.71,250.68 Z" fill="#161f52"/></g><g transform="translate(-31.74 26.45)"><path d="M55.71,0 H167.12 A55.71,55.71 0 0 1 222.82,55.71 V640.61 A55.71,55.71 0 0 1 167.12,696.32 H55.71 A55.71,55.71 0 0 1 0,640.61 V55.71 A55.71,55.71 0 0 1 55.71,0 Z M55.71,0 H423.36 A55.71,55.71 0 0 1 479.07,55.71 V139.26 A55.71,55.71 0 0 1 423.36,194.97 H55.71 A55.71,55.71 0 0 1 0,139.26 V55.71 A55.71,55.71 0 0 1 55.71,0 Z M55.71,250.68 H278.53 A55.71,55.71 0 0 1 334.23,306.38 V382.98 A55.71,55.71 0 0 1 278.53,438.68 H55.71 A55.71,55.71 0 0 1 0,382.98 V306.38 A55.71,55.71 0 0 1 55.71,250.68 Z" fill="#161f52"/></g><g transform="translate(-31.23 26.03)"><path d="M55.71,0 H167.12 A55.71,55.71 0 0 1 222.82,55.71 V640.61 A55.71,55.71 0 0 1 167.12,696.32 H55.71 A55.71,55.71 0 0 1 0,640.61 V55.71 A55.71,55.71 0 0 1 55.71,0 Z M55.71,0 H423.36 A55.71,55.71 0 0 1 479.07,55.71 V139.26 A55.71,55.71 0 0 1 423.36,194.97 H55.71 A55.71,55.71 0 0 1 0,139.26 V55.71 A55.71,55.71 0 0 1 55.71,0 Z M55.71,250.68 H278.53 A55.71,55.71 0 0 1 334.23,306.38 V382.98 A55.71,55.71 0 0 1 278.53,438.68 H55.71 A55.71,55.71 0 0 1 0,382.98 V306.38 A55.71,55.71 0 0 1 55.71,250.68 Z" fill="#161f52"/></g><g transform="translate(-30.72 25.6)"><path d="M55.71,0 H167.12 A55.71,55.71 0 0 1 222.82,55.71 V640.61 A55.71,55.71 0 0 1 167.12,696.32 H55.71 A55.71,55.71 0 0 1 0,640.61 V55.71 A55.71,55.71 0 0 1 55.71,0 Z M55.71,0 H423.36 A55.71,55.71 0 0 1 479.07,55.71 V139.26 A55.71,55.71 0 0 1 423.36,194.97 H55.71 A55.71,55.71 0 0 1 0,139.26 V55.71 A55.71,55.71 0 0 1 55.71,0 Z M55.71,250.68 H278.53 A55.71,55.71 0 0 1 334.23,306.38 V382.98 A55.71,55.71 0 0 1 278.53,438.68 H55.71 A55.71,55.71 0 0 1 0,382.98 V306.38 A55.71,55.71 0 0 1 55.71,250.68 Z" fill="#161f52"/></g><g transform="translate(-30.21 25.17)"><path d="M55.71,0 H167.12 A55.71,55.71 0 0 1 222.82,55.71 V640.61 A55.71,55.71 0 0 1 167.12,696.32 H55.71 A55.71,55.71 0 0 1 0,640.61 V55.71 A55.71,55.71 0 0 1 55.71,0 Z M55.71,0 H423.36 A55.71,55.71 0 0 1 479.07,55.71 V139.26 A55.71,55.71 0 0 1 423.36,194.97 H55.71 A55.71,55.71 0 0 1 0,139.26 V55.71 A55.71,55.71 0 0 1 55.71,0 Z M55.71,250.68 H278.53 A55.71,55.71 0 0 1 334.23,306.38 V382.98 A55.71,55.71 0 0 1 278.53,438.68 H55.71 A55.71,55.71 0 0 1 0,382.98 V306.38 A55.71,55.71 0 0 1 55.71,250.68 Z" fill="#161f52"/></g><g transform="translate(-29.7 24.75)"><path d="M55.71,0 H167.12 A55.71,55.71 0 0 1 222.82,55.71 V640.61 A55.71,55.71 0 0 1 167.12,696.32 H55.71 A55.71,55.71 0 0 1 0,640.61 V55.71 A55.71,55.71 0 0 1 55.71,0 Z M55.71,0 H423.36 A55.71,55.71 0 0 1 479.07,55.71 V139.26 A55.71,55.71 0 0 1 423.36,194.97 H55.71 A55.71,55.71 0 0 1 0,139.26 V55.71 A55.71,55.71 0 0 1 55.71,0 Z M55.71,250.68 H278.53 A55.71,55.71 0 0 1 334.23,306.38 V382.98 A55.71,55.71 0 0 1 278.53,438.68 H55.71 A55.71,55.71 0 0 1 0,382.98 V306.38 A55.71,55.71 0 0 1 55.71,250.68 Z" fill="#161f52"/></g><g transform="translate(-29.18 24.32)"><path d="M55.71,0 H167.12 A55.71,55.71 0 0 1 222.82,55.71 V640.61 A55.71,55.71 0 0 1 167.12,696.32 H55.71 A55.71,55.71 0 0 1 0,640.61 V55.71 A55.71,55.71 0 0 1 55.71,0 Z M55.71,0 H423.36 A55.71,55.71 0 0 1 479.07,55.71 V139.26 A55.71,55.71 0 0 1 423.36,194.97 H55.71 A55.71,55.71 0 0 1 0,139.26 V55.71 A55.71,55.71 0 0 1 55.71,0 Z M55.71,250.68 H278.53 A55.71,55.71 0 0 1 334.23,306.38 V382.98 A55.71,55.71 0 0 1 278.53,438.68 H55.71 A55.71,55.71 0 0 1 0,382.98 V306.38 A55.71,55.71 0 0 1 55.71,250.68 Z" fill="#161f52"/></g><g transform="translate(-28.67 23.89)"><path d="M55.71,0 H167.12 A55.71,55.71 0 0 1 222.82,55.71 V640.61 A55.71,55.71 0 0 1 167.12,696.32 H55.71 A55.71,55.71 0 0 1 0,640.61 V55.71 A55.71,55.71 0 0 1 55.71,0 Z M55.71,0 H423.36 A55.71,55.71 0 0 1 479.07,55.71 V139.26 A55.71,55.71 0 0 1 423.36,194.97 H55.71 A55.71,55.71 0 0 1 0,139.26 V55.71 A55.71,55.71 0 0 1 55.71,0 Z M55.71,250.68 H278.53 A55.71,55.71 0 0 1 334.23,306.38 V382.98 A55.71,55.71 0 0 1 278.53,438.68 H55.71 A55.71,55.71 0 0 1 0,382.98 V306.38 A55.71,55.71 0 0 1 55.71,250.68 Z" fill="#161f52"/></g><g transform="translate(-28.16 23.47)"><path d="M55.71,0 H167.12 A55.71,55.71 0 0 1 222.82,55.71 V640.61 A55.71,55.71 0 0 1 167.12,696.32 H55.71 A55.71,55.71 0 0 1 0,640.61 V55.71 A55.71,55.71 0 0 1 55.71,0 Z M55.71,0 H423.36 A55.71,55.71 0 0 1 479.07,55.71 V139.26 A55.71,55.71 0 0 1 423.36,194.97 H55.71 A55.71,55.71 0 0 1 0,139.26 V55.71 A55.71,55.71 0 0 1 55.71,0 Z M55.71,250.68 H278.53 A55.71,55.71 0 0 1 334.23,306.38 V382.98 A55.71,55.71 0 0 1 278.53,438.68 H55.71 A55.71,55.71 0 0 1 0,382.98 V306.38 A55.71,55.71 0 0 1 55.71,250.68 Z" fill="#161f52"/></g><g transform="translate(-27.65 23.04)"><path d="M55.71,0 H167.12 A55.71,55.71 0 0 1 222.82,55.71 V640.61 A55.71,55.71 0 0 1 167.12,696.32 H55.71 A55.71,55.71 0 0 1 0,640.61 V55.71 A55.71,55.71 0 0 1 55.71,0 Z M55.71,0 H423.36 A55.71,55.71 0 0 1 479.07,55.71 V139.26 A55.71,55.71 0 0 1 423.36,194.97 H55.71 A55.71,55.71 0 0 1 0,139.26 V55.71 A55.71,55.71 0 0 1 55.71,0 Z M55.71,250.68 H278.53 A55.71,55.71 0 0 1 334.23,306.38 V382.98 A55.71,55.71 0 0 1 278.53,438.68 H55.71 A55.71,55.71 0 0 1 0,382.98 V306.38 A55.71,55.71 0 0 1 55.71,250.68 Z" fill="#161f52"/></g><g transform="translate(-27.14 22.61)"><path d="M55.71,0 H167.12 A55.71,55.71 0 0 1 222.82,55.71 V640.61 A55.71,55.71 0 0 1 167.12,696.32 H55.71 A55.71,55.71 0 0 1 0,640.61 V55.71 A55.71,55.71 0 0 1 55.71,0 Z M55.71,0 H423.36 A55.71,55.71 0 0 1 479.07,55.71 V139.26 A55.71,55.71 0 0 1 423.36,194.97 H55.71 A55.71,55.71 0 0 1 0,139.26 V55.71 A55.71,55.71 0 0 1 55.71,0 Z M55.71,250.68 H278.53 A55.71,55.71 0 0 1 334.23,306.38 V382.98 A55.71,55.71 0 0 1 278.53,438.68 H55.71 A55.71,55.71 0 0 1 0,382.98 V306.38 A55.71,55.71 0 0 1 55.71,250.68 Z" fill="#161f52"/></g><g transform="translate(-26.62 22.19)"><path d="M55.71,0 H167.12 A55.71,55.71 0 0 1 222.82,55.71 V640.61 A55.71,55.71 0 0 1 167.12,696.32 H55.71 A55.71,55.71 0 0 1 0,640.61 V55.71 A55.71,55.71 0 0 1 55.71,0 Z M55.71,0 H423.36 A55.71,55.71 0 0 1 479.07,55.71 V139.26 A55.71,55.71 0 0 1 423.36,194.97 H55.71 A55.71,55.71 0 0 1 0,139.26 V55.71 A55.71,55.71 0 0 1 55.71,0 Z M55.71,250.68 H278.53 A55.71,55.71 0 0 1 334.23,306.38 V382.98 A55.71,55.71 0 0 1 278.53,438.68 H55.71 A55.71,55.71 0 0 1 0,382.98 V306.38 A55.71,55.71 0 0 1 55.71,250.68 Z" fill="#161f52"/></g><g transform="translate(-26.11 21.76)"><path d="M55.71,0 H167.12 A55.71,55.71 0 0 1 222.82,55.71 V640.61 A55.71,55.71 0 0 1 167.12,696.32 H55.71 A55.71,55.71 0 0 1 0,640.61 V55.71 A55.71,55.71 0 0 1 55.71,0 Z M55.71,0 H423.36 A55.71,55.71 0 0 1 479.07,55.71 V139.26 A55.71,55.71 0 0 1 423.36,194.97 H55.71 A55.71,55.71 0 0 1 0,139.26 V55.71 A55.71,55.71 0 0 1 55.71,0 Z M55.71,250.68 H278.53 A55.71,55.71 0 0 1 334.23,306.38 V382.98 A55.71,55.71 0 0 1 278.53,438.68 H55.71 A55.71,55.71 0 0 1 0,382.98 V306.38 A55.71,55.71 0 0 1 55.71,250.68 Z" fill="#161f52"/></g><g transform="translate(-25.6 21.33)"><path d="M55.71,0 H167.12 A55.71,55.71 0 0 1 222.82,55.71 V640.61 A55.71,55.71 0 0 1 167.12,696.32 H55.71 A55.71,55.71 0 0 1 0,640.61 V55.71 A55.71,55.71 0 0 1 55.71,0 Z M55.71,0 H423.36 A55.71,55.71 0 0 1 479.07,55.71 V139.26 A55.71,55.71 0 0 1 423.36,194.97 H55.71 A55.71,55.71 0 0 1 0,139.26 V55.71 A55.71,55.71 0 0 1 55.71,0 Z M55.71,250.68 H278.53 A55.71,55.71 0 0 1 334.23,306.38 V382.98 A55.71,55.71 0 0 1 278.53,438.68 H55.71 A55.71,55.71 0 0 1 0,382.98 V306.38 A55.71,55.71 0 0 1 55.71,250.68 Z" fill="#161f52"/></g><g transform="translate(-25.09 20.91)"><path d="M55.71,0 H167.12 A55.71,55.71 0 0 1 222.82,55.71 V640.61 A55.71,55.71 0 0 1 167.12,696.32 H55.71 A55.71,55.71 0 0 1 0,640.61 V55.71 A55.71,55.71 0 0 1 55.71,0 Z M55.71,0 H423.36 A55.71,55.71 0 0 1 479.07,55.71 V139.26 A55.71,55.71 0 0 1 423.36,194.97 H55.71 A55.71,55.71 0 0 1 0,139.26 V55.71 A55.71,55.71 0 0 1 55.71,0 Z M55.71,250.68 H278.53 A55.71,55.71 0 0 1 334.23,306.38 V382.98 A55.71,55.71 0 0 1 278.53,438.68 H55.71 A55.71,55.71 0 0 1 0,382.98 V306.38 A55.71,55.71 0 0 1 55.71,250.68 Z" fill="#161f52"/></g><g transform="translate(-24.58 20.48)"><path d="M55.71,0 H167.12 A55.71,55.71 0 0 1 222.82,55.71 V640.61 A55.71,55.71 0 0 1 167.12,696.32 H55.71 A55.71,55.71 0 0 1 0,640.61 V55.71 A55.71,55.71 0 0 1 55.71,0 Z M55.71,0 H423.36 A55.71,55.71 0 0 1 479.07,55.71 V139.26 A55.71,55.71 0 0 1 423.36,194.97 H55.71 A55.71,55.71 0 0 1 0,139.26 V55.71 A55.71,55.71 0 0 1 55.71,0 Z M55.71,250.68 H278.53 A55.71,55.71 0 0 1 334.23,306.38 V382.98 A55.71,55.71 0 0 1 278.53,438.68 H55.71 A55.71,55.71 0 0 1 0,382.98 V306.38 A55.71,55.71 0 0 1 55.71,250.68 Z" fill="#161f52"/></g><g transform="translate(-24.06 20.05)"><path d="M55.71,0 H167.12 A55.71,55.71 0 0 1 222.82,55.71 V640.61 A55.71,55.71 0 0 1 167.12,696.32 H55.71 A55.71,55.71 0 0 1 0,640.61 V55.71 A55.71,55.71 0 0 1 55.71,0 Z M55.71,0 H423.36 A55.71,55.71 0 0 1 479.07,55.71 V139.26 A55.71,55.71 0 0 1 423.36,194.97 H55.71 A55.71,55.71 0 0 1 0,139.26 V55.71 A55.71,55.71 0 0 1 55.71,0 Z M55.71,250.68 H278.53 A55.71,55.71 0 0 1 334.23,306.38 V382.98 A55.71,55.71 0 0 1 278.53,438.68 H55.71 A55.71,55.71 0 0 1 0,382.98 V306.38 A55.71,55.71 0 0 1 55.71,250.68 Z" fill="#161f52"/></g><g transform="translate(-23.55 19.63)"><path d="M55.71,0 H167.12 A55.71,55.71 0 0 1 222.82,55.71 V640.61 A55.71,55.71 0 0 1 167.12,696.32 H55.71 A55.71,55.71 0 0 1 0,640.61 V55.71 A55.71,55.71 0 0 1 55.71,0 Z M55.71,0 H423.36 A55.71,55.71 0 0 1 479.07,55.71 V139.26 A55.71,55.71 0 0 1 423.36,194.97 H55.71 A55.71,55.71 0 0 1 0,139.26 V55.71 A55.71,55.71 0 0 1 55.71,0 Z M55.71,250.68 H278.53 A55.71,55.71 0 0 1 334.23,306.38 V382.98 A55.71,55.71 0 0 1 278.53,438.68 H55.71 A55.71,55.71 0 0 1 0,382.98 V306.38 A55.71,55.71 0 0 1 55.71,250.68 Z" fill="#161f52"/></g><g transform="translate(-23.04 19.2)"><path d="M55.71,0 H167.12 A55.71,55.71 0 0 1 222.82,55.71 V640.61 A55.71,55.71 0 0 1 167.12,696.32 H55.71 A55.71,55.71 0 0 1 0,640.61 V55.71 A55.71,55.71 0 0 1 55.71,0 Z M55.71,0 H423.36 A55.71,55.71 0 0 1 479.07,55.71 V139.26 A55.71,55.71 0 0 1 423.36,194.97 H55.71 A55.71,55.71 0 0 1 0,139.26 V55.71 A55.71,55.71 0 0 1 55.71,0 Z M55.71,250.68 H278.53 A55.71,55.71 0 0 1 334.23,306.38 V382.98 A55.71,55.71 0 0 1 278.53,438.68 H55.71 A55.71,55.71 0 0 1 0,382.98 V306.38 A55.71,55.71 0 0 1 55.71,250.68 Z" fill="#161f52"/></g><g transform="translate(-22.53 18.77)"><path d="M55.71,0 H167.12 A55.71,55.71 0 0 1 222.82,55.71 V640.61 A55.71,55.71 0 0 1 167.12,696.32 H55.71 A55.71,55.71 0 0 1 0,640.61 V55.71 A55.71,55.71 0 0 1 55.71,0 Z M55.71,0 H423.36 A55.71,55.71 0 0 1 479.07,55.71 V139.26 A55.71,55.71 0 0 1 423.36,194.97 H55.71 A55.71,55.71 0 0 1 0,139.26 V55.71 A55.71,55.71 0 0 1 55.71,0 Z M55.71,250.68 H278.53 A55.71,55.71 0 0 1 334.23,306.38 V382.98 A55.71,55.71 0 0 1 278.53,438.68 H55.71 A55.71,55.71 0 0 1 0,382.98 V306.38 A55.71,55.71 0 0 1 55.71,250.68 Z" fill="#161f52"/></g><g transform="translate(-22.02 18.35)"><path d="M55.71,0 H167.12 A55.71,55.71 0 0 1 222.82,55.71 V640.61 A55.71,55.71 0 0 1 167.12,696.32 H55.71 A55.71,55.71 0 0 1 0,640.61 V55.71 A55.71,55.71 0 0 1 55.71,0 Z M55.71,0 H423.36 A55.71,55.71 0 0 1 479.07,55.71 V139.26 A55.71,55.71 0 0 1 423.36,194.97 H55.71 A55.71,55.71 0 0 1 0,139.26 V55.71 A55.71,55.71 0 0 1 55.71,0 Z M55.71,250.68 H278.53 A55.71,55.71 0 0 1 334.23,306.38 V382.98 A55.71,55.71 0 0 1 278.53,438.68 H55.71 A55.71,55.71 0 0 1 0,382.98 V306.38 A55.71,55.71 0 0 1 55.71,250.68 Z" fill="#161f52"/></g><g transform="translate(-21.5 17.92)"><path d="M55.71,0 H167.12 A55.71,55.71 0 0 1 222.82,55.71 V640.61 A55.71,55.71 0 0 1 167.12,696.32 H55.71 A55.71,55.71 0 0 1 0,640.61 V55.71 A55.71,55.71 0 0 1 55.71,0 Z M55.71,0 H423.36 A55.71,55.71 0 0 1 479.07,55.71 V139.26 A55.71,55.71 0 0 1 423.36,194.97 H55.71 A55.71,55.71 0 0 1 0,139.26 V55.71 A55.71,55.71 0 0 1 55.71,0 Z M55.71,250.68 H278.53 A55.71,55.71 0 0 1 334.23,306.38 V382.98 A55.71,55.71 0 0 1 278.53,438.68 H55.71 A55.71,55.71 0 0 1 0,382.98 V306.38 A55.71,55.71 0 0 1 55.71,250.68 Z" fill="#161f52"/></g><g transform="translate(-20.99 17.49)"><path d="M55.71,0 H167.12 A55.71,55.71 0 0 1 222.82,55.71 V640.61 A55.71,55.71 0 0 1 167.12,696.32 H55.71 A55.71,55.71 0 0 1 0,640.61 V55.71 A55.71,55.71 0 0 1 55.71,0 Z M55.71,0 H423.36 A55.71,55.71 0 0 1 479.07,55.71 V139.26 A55.71,55.71 0 0 1 423.36,194.97 H55.71 A55.71,55.71 0 0 1 0,139.26 V55.71 A55.71,55.71 0 0 1 55.71,0 Z M55.71,250.68 H278.53 A55.71,55.71 0 0 1 334.23,306.38 V382.98 A55.71,55.71 0 0 1 278.53,438.68 H55.71 A55.71,55.71 0 0 1 0,382.98 V306.38 A55.71,55.71 0 0 1 55.71,250.68 Z" fill="#161f52"/></g><g transform="translate(-20.48 17.07)"><path d="M55.71,0 H167.12 A55.71,55.71 0 0 1 222.82,55.71 V640.61 A55.71,55.71 0 0 1 167.12,696.32 H55.71 A55.71,55.71 0 0 1 0,640.61 V55.71 A55.71,55.71 0 0 1 55.71,0 Z M55.71,0 H423.36 A55.71,55.71 0 0 1 479.07,55.71 V139.26 A55.71,55.71 0 0 1 423.36,194.97 H55.71 A55.71,55.71 0 0 1 0,139.26 V55.71 A55.71,55.71 0 0 1 55.71,0 Z M55.71,250.68 H278.53 A55.71,55.71 0 0 1 334.23,306.38 V382.98 A55.71,55.71 0 0 1 278.53,438.68 H55.71 A55.71,55.71 0 0 1 0,382.98 V306.38 A55.71,55.71 0 0 1 55.71,250.68 Z" fill="#161f52"/></g><g transform="translate(-19.97 16.64)"><path d="M55.71,0 H167.12 A55.71,55.71 0 0 1 222.82,55.71 V640.61 A55.71,55.71 0 0 1 167.12,696.32 H55.71 A55.71,55.71 0 0 1 0,640.61 V55.71 A55.71,55.71 0 0 1 55.71,0 Z M55.71,0 H423.36 A55.71,55.71 0 0 1 479.07,55.71 V139.26 A55.71,55.71 0 0 1 423.36,194.97 H55.71 A55.71,55.71 0 0 1 0,139.26 V55.71 A55.71,55.71 0 0 1 55.71,0 Z M55.71,250.68 H278.53 A55.71,55.71 0 0 1 334.23,306.38 V382.98 A55.71,55.71 0 0 1 278.53,438.68 H55.71 A55.71,55.71 0 0 1 0,382.98 V306.38 A55.71,55.71 0 0 1 55.71,250.68 Z" fill="#161f52"/></g><g transform="translate(-19.46 16.21)"><path d="M55.71,0 H167.12 A55.71,55.71 0 0 1 222.82,55.71 V640.61 A55.71,55.71 0 0 1 167.12,696.32 H55.71 A55.71,55.71 0 0 1 0,640.61 V55.71 A55.71,55.71 0 0 1 55.71,0 Z M55.71,0 H423.36 A55.71,55.71 0 0 1 479.07,55.71 V139.26 A55.71,55.71 0 0 1 423.36,194.97 H55.71 A55.71,55.71 0 0 1 0,139.26 V55.71 A55.71,55.71 0 0 1 55.71,0 Z M55.71,250.68 H278.53 A55.71,55.71 0 0 1 334.23,306.38 V382.98 A55.71,55.71 0 0 1 278.53,438.68 H55.71 A55.71,55.71 0 0 1 0,382.98 V306.38 A55.71,55.71 0 0 1 55.71,250.68 Z" fill="#161f52"/></g><g transform="translate(-18.94 15.79)"><path d="M55.71,0 H167.12 A55.71,55.71 0 0 1 222.82,55.71 V640.61 A55.71,55.71 0 0 1 167.12,696.32 H55.71 A55.71,55.71 0 0 1 0,640.61 V55.71 A55.71,55.71 0 0 1 55.71,0 Z M55.71,0 H423.36 A55.71,55.71 0 0 1 479.07,55.71 V139.26 A55.71,55.71 0 0 1 423.36,194.97 H55.71 A55.71,55.71 0 0 1 0,139.26 V55.71 A55.71,55.71 0 0 1 55.71,0 Z M55.71,250.68 H278.53 A55.71,55.71 0 0 1 334.23,306.38 V382.98 A55.71,55.71 0 0 1 278.53,438.68 H55.71 A55.71,55.71 0 0 1 0,382.98 V306.38 A55.71,55.71 0 0 1 55.71,250.68 Z" fill="#161f52"/></g><g transform="translate(-18.43 15.36)"><path d="M55.71,0 H167.12 A55.71,55.71 0 0 1 222.82,55.71 V640.61 A55.71,55.71 0 0 1 167.12,696.32 H55.71 A55.71,55.71 0 0 1 0,640.61 V55.71 A55.71,55.71 0 0 1 55.71,0 Z M55.71,0 H423.36 A55.71,55.71 0 0 1 479.07,55.71 V139.26 A55.71,55.71 0 0 1 423.36,194.97 H55.71 A55.71,55.71 0 0 1 0,139.26 V55.71 A55.71,55.71 0 0 1 55.71,0 Z M55.71,250.68 H278.53 A55.71,55.71 0 0 1 334.23,306.38 V382.98 A55.71,55.71 0 0 1 278.53,438.68 H55.71 A55.71,55.71 0 0 1 0,382.98 V306.38 A55.71,55.71 0 0 1 55.71,250.68 Z" fill="#161f52"/></g><g transform="translate(-17.92 14.93)"><path d="M55.71,0 H167.12 A55.71,55.71 0 0 1 222.82,55.71 V640.61 A55.71,55.71 0 0 1 167.12,696.32 H55.71 A55.71,55.71 0 0 1 0,640.61 V55.71 A55.71,55.71 0 0 1 55.71,0 Z M55.71,0 H423.36 A55.71,55.71 0 0 1 479.07,55.71 V139.26 A55.71,55.71 0 0 1 423.36,194.97 H55.71 A55.71,55.71 0 0 1 0,139.26 V55.71 A55.71,55.71 0 0 1 55.71,0 Z M55.71,250.68 H278.53 A55.71,55.71 0 0 1 334.23,306.38 V382.98 A55.71,55.71 0 0 1 278.53,438.68 H55.71 A55.71,55.71 0 0 1 0,382.98 V306.38 A55.71,55.71 0 0 1 55.71,250.68 Z" fill="#161f52"/></g><g transform="translate(-17.41 14.51)"><path d="M55.71,0 H167.12 A55.71,55.71 0 0 1 222.82,55.71 V640.61 A55.71,55.71 0 0 1 167.12,696.32 H55.71 A55.71,55.71 0 0 1 0,640.61 V55.71 A55.71,55.71 0 0 1 55.71,0 Z M55.71,0 H423.36 A55.71,55.71 0 0 1 479.07,55.71 V139.26 A55.71,55.71 0 0 1 423.36,194.97 H55.71 A55.71,55.71 0 0 1 0,139.26 V55.71 A55.71,55.71 0 0 1 55.71,0 Z M55.71,250.68 H278.53 A55.71,55.71 0 0 1 334.23,306.38 V382.98 A55.71,55.71 0 0 1 278.53,438.68 H55.71 A55.71,55.71 0 0 1 0,382.98 V306.38 A55.71,55.71 0 0 1 55.71,250.68 Z" fill="#161f52"/></g><g transform="translate(-16.9 14.08)"><path d="M55.71,0 H167.12 A55.71,55.71 0 0 1 222.82,55.71 V640.61 A55.71,55.71 0 0 1 167.12,696.32 H55.71 A55.71,55.71 0 0 1 0,640.61 V55.71 A55.71,55.71 0 0 1 55.71,0 Z M55.71,0 H423.36 A55.71,55.71 0 0 1 479.07,55.71 V139.26 A55.71,55.71 0 0 1 423.36,194.97 H55.71 A55.71,55.71 0 0 1 0,139.26 V55.71 A55.71,55.71 0 0 1 55.71,0 Z M55.71,250.68 H278.53 A55.71,55.71 0 0 1 334.23,306.38 V382.98 A55.71,55.71 0 0 1 278.53,438.68 H55.71 A55.71,55.71 0 0 1 0,382.98 V306.38 A55.71,55.71 0 0 1 55.71,250.68 Z" fill="#161f52"/></g><g transform="translate(-16.38 13.65)"><path d="M55.71,0 H167.12 A55.71,55.71 0 0 1 222.82,55.71 V640.61 A55.71,55.71 0 0 1 167.12,696.32 H55.71 A55.71,55.71 0 0 1 0,640.61 V55.71 A55.71,55.71 0 0 1 55.71,0 Z M55.71,0 H423.36 A55.71,55.71 0 0 1 479.07,55.71 V139.26 A55.71,55.71 0 0 1 423.36,194.97 H55.71 A55.71,55.71 0 0 1 0,139.26 V55.71 A55.71,55.71 0 0 1 55.71,0 Z M55.71,250.68 H278.53 A55.71,55.71 0 0 1 334.23,306.38 V382.98 A55.71,55.71 0 0 1 278.53,438.68 H55.71 A55.71,55.71 0 0 1 0,382.98 V306.38 A55.71,55.71 0 0 1 55.71,250.68 Z" fill="#161f52"/></g><g transform="translate(-15.87 13.23)"><path d="M55.71,0 H167.12 A55.71,55.71 0 0 1 222.82,55.71 V640.61 A55.71,55.71 0 0 1 167.12,696.32 H55.71 A55.71,55.71 0 0 1 0,640.61 V55.71 A55.71,55.71 0 0 1 55.71,0 Z M55.71,0 H423.36 A55.71,55.71 0 0 1 479.07,55.71 V139.26 A55.71,55.71 0 0 1 423.36,194.97 H55.71 A55.71,55.71 0 0 1 0,139.26 V55.71 A55.71,55.71 0 0 1 55.71,0 Z M55.71,250.68 H278.53 A55.71,55.71 0 0 1 334.23,306.38 V382.98 A55.71,55.71 0 0 1 278.53,438.68 H55.71 A55.71,55.71 0 0 1 0,382.98 V306.38 A55.71,55.71 0 0 1 55.71,250.68 Z" fill="#161f52"/></g><g transform="translate(-15.36 12.8)"><path d="M55.71,0 H167.12 A55.71,55.71 0 0 1 222.82,55.71 V640.61 A55.71,55.71 0 0 1 167.12,696.32 H55.71 A55.71,55.71 0 0 1 0,640.61 V55.71 A55.71,55.71 0 0 1 55.71,0 Z M55.71,0 H423.36 A55.71,55.71 0 0 1 479.07,55.71 V139.26 A55.71,55.71 0 0 1 423.36,194.97 H55.71 A55.71,55.71 0 0 1 0,139.26 V55.71 A55.71,55.71 0 0 1 55.71,0 Z M55.71,250.68 H278.53 A55.71,55.71 0 0 1 334.23,306.38 V382.98 A55.71,55.71 0 0 1 278.53,438.68 H55.71 A55.71,55.71 0 0 1 0,382.98 V306.38 A55.71,55.71 0 0 1 55.71,250.68 Z" fill="#161f52"/></g><g transform="translate(-14.85 12.37)"><path d="M55.71,0 H167.12 A55.71,55.71 0 0 1 222.82,55.71 V640.61 A55.71,55.71 0 0 1 167.12,696.32 H55.71 A55.71,55.71 0 0 1 0,640.61 V55.71 A55.71,55.71 0 0 1 55.71,0 Z M55.71,0 H423.36 A55.71,55.71 0 0 1 479.07,55.71 V139.26 A55.71,55.71 0 0 1 423.36,194.97 H55.71 A55.71,55.71 0 0 1 0,139.26 V55.71 A55.71,55.71 0 0 1 55.71,0 Z M55.71,250.68 H278.53 A55.71,55.71 0 0 1 334.23,306.38 V382.98 A55.71,55.71 0 0 1 278.53,438.68 H55.71 A55.71,55.71 0 0 1 0,382.98 V306.38 A55.71,55.71 0 0 1 55.71,250.68 Z" fill="#161f52"/></g><g transform="translate(-14.34 11.95)"><path d="M55.71,0 H167.12 A55.71,55.71 0 0 1 222.82,55.71 V640.61 A55.71,55.71 0 0 1 167.12,696.32 H55.71 A55.71,55.71 0 0 1 0,640.61 V55.71 A55.71,55.71 0 0 1 55.71,0 Z M55.71,0 H423.36 A55.71,55.71 0 0 1 479.07,55.71 V139.26 A55.71,55.71 0 0 1 423.36,194.97 H55.71 A55.71,55.71 0 0 1 0,139.26 V55.71 A55.71,55.71 0 0 1 55.71,0 Z M55.71,250.68 H278.53 A55.71,55.71 0 0 1 334.23,306.38 V382.98 A55.71,55.71 0 0 1 278.53,438.68 H55.71 A55.71,55.71 0 0 1 0,382.98 V306.38 A55.71,55.71 0 0 1 55.71,250.68 Z" fill="#161f52"/></g><g transform="translate(-13.82 11.52)"><path d="M55.71,0 H167.12 A55.71,55.71 0 0 1 222.82,55.71 V640.61 A55.71,55.71 0 0 1 167.12,696.32 H55.71 A55.71,55.71 0 0 1 0,640.61 V55.71 A55.71,55.71 0 0 1 55.71,0 Z M55.71,0 H423.36 A55.71,55.71 0 0 1 479.07,55.71 V139.26 A55.71,55.71 0 0 1 423.36,194.97 H55.71 A55.71,55.71 0 0 1 0,139.26 V55.71 A55.71,55.71 0 0 1 55.71,0 Z M55.71,250.68 H278.53 A55.71,55.71 0 0 1 334.23,306.38 V382.98 A55.71,55.71 0 0 1 278.53,438.68 H55.71 A55.71,55.71 0 0 1 0,382.98 V306.38 A55.71,55.71 0 0 1 55.71,250.68 Z" fill="#161f52"/></g><g transform="translate(-13.31 11.09)"><path d="M55.71,0 H167.12 A55.71,55.71 0 0 1 222.82,55.71 V640.61 A55.71,55.71 0 0 1 167.12,696.32 H55.71 A55.71,55.71 0 0 1 0,640.61 V55.71 A55.71,55.71 0 0 1 55.71,0 Z M55.71,0 H423.36 A55.71,55.71 0 0 1 479.07,55.71 V139.26 A55.71,55.71 0 0 1 423.36,194.97 H55.71 A55.71,55.71 0 0 1 0,139.26 V55.71 A55.71,55.71 0 0 1 55.71,0 Z M55.71,250.68 H278.53 A55.71,55.71 0 0 1 334.23,306.38 V382.98 A55.71,55.71 0 0 1 278.53,438.68 H55.71 A55.71,55.71 0 0 1 0,382.98 V306.38 A55.71,55.71 0 0 1 55.71,250.68 Z" fill="#161f52"/></g><g transform="translate(-12.8 10.67)"><path d="M55.71,0 H167.12 A55.71,55.71 0 0 1 222.82,55.71 V640.61 A55.71,55.71 0 0 1 167.12,696.32 H55.71 A55.71,55.71 0 0 1 0,640.61 V55.71 A55.71,55.71 0 0 1 55.71,0 Z M55.71,0 H423.36 A55.71,55.71 0 0 1 479.07,55.71 V139.26 A55.71,55.71 0 0 1 423.36,194.97 H55.71 A55.71,55.71 0 0 1 0,139.26 V55.71 A55.71,55.71 0 0 1 55.71,0 Z M55.71,250.68 H278.53 A55.71,55.71 0 0 1 334.23,306.38 V382.98 A55.71,55.71 0 0 1 278.53,438.68 H55.71 A55.71,55.71 0 0 1 0,382.98 V306.38 A55.71,55.71 0 0 1 55.71,250.68 Z" fill="#161f52"/></g><g transform="translate(-12.29 10.24)"><path d="M55.71,0 H167.12 A55.71,55.71 0 0 1 222.82,55.71 V640.61 A55.71,55.71 0 0 1 167.12,696.32 H55.71 A55.71,55.71 0 0 1 0,640.61 V55.71 A55.71,55.71 0 0 1 55.71,0 Z M55.71,0 H423.36 A55.71,55.71 0 0 1 479.07,55.71 V139.26 A55.71,55.71 0 0 1 423.36,194.97 H55.71 A55.71,55.71 0 0 1 0,139.26 V55.71 A55.71,55.71 0 0 1 55.71,0 Z M55.71,250.68 H278.53 A55.71,55.71 0 0 1 334.23,306.38 V382.98 A55.71,55.71 0 0 1 278.53,438.68 H55.71 A55.71,55.71 0 0 1 0,382.98 V306.38 A55.71,55.71 0 0 1 55.71,250.68 Z" fill="#161f52"/></g><g transform="translate(-11.78 9.81)"><path d="M55.71,0 H167.12 A55.71,55.71 0 0 1 222.82,55.71 V640.61 A55.71,55.71 0 0 1 167.12,696.32 H55.71 A55.71,55.71 0 0 1 0,640.61 V55.71 A55.71,55.71 0 0 1 55.71,0 Z M55.71,0 H423.36 A55.71,55.71 0 0 1 479.07,55.71 V139.26 A55.71,55.71 0 0 1 423.36,194.97 H55.71 A55.71,55.71 0 0 1 0,139.26 V55.71 A55.71,55.71 0 0 1 55.71,0 Z M55.71,250.68 H278.53 A55.71,55.71 0 0 1 334.23,306.38 V382.98 A55.71,55.71 0 0 1 278.53,438.68 H55.71 A55.71,55.71 0 0 1 0,382.98 V306.38 A55.71,55.71 0 0 1 55.71,250.68 Z" fill="#161f52"/></g><g transform="translate(-11.26 9.39)"><path d="M55.71,0 H167.12 A55.71,55.71 0 0 1 222.82,55.71 V640.61 A55.71,55.71 0 0 1 167.12,696.32 H55.71 A55.71,55.71 0 0 1 0,640.61 V55.71 A55.71,55.71 0 0 1 55.71,0 Z M55.71,0 H423.36 A55.71,55.71 0 0 1 479.07,55.71 V139.26 A55.71,55.71 0 0 1 423.36,194.97 H55.71 A55.71,55.71 0 0 1 0,139.26 V55.71 A55.71,55.71 0 0 1 55.71,0 Z M55.71,250.68 H278.53 A55.71,55.71 0 0 1 334.23,306.38 V382.98 A55.71,55.71 0 0 1 278.53,438.68 H55.71 A55.71,55.71 0 0 1 0,382.98 V306.38 A55.71,55.71 0 0 1 55.71,250.68 Z" fill="#161f52"/></g><g transform="translate(-10.75 8.96)"><path d="M55.71,0 H167.12 A55.71,55.71 0 0 1 222.82,55.71 V640.61 A55.71,55.71 0 0 1 167.12,696.32 H55.71 A55.71,55.71 0 0 1 0,640.61 V55.71 A55.71,55.71 0 0 1 55.71,0 Z M55.71,0 H423.36 A55.71,55.71 0 0 1 479.07,55.71 V139.26 A55.71,55.71 0 0 1 423.36,194.97 H55.71 A55.71,55.71 0 0 1 0,139.26 V55.71 A55.71,55.71 0 0 1 55.71,0 Z M55.71,250.68 H278.53 A55.71,55.71 0 0 1 334.23,306.38 V382.98 A55.71,55.71 0 0 1 278.53,438.68 H55.71 A55.71,55.71 0 0 1 0,382.98 V306.38 A55.71,55.71 0 0 1 55.71,250.68 Z" fill="#161f52"/></g><g transform="translate(-10.24 8.53)"><path d="M55.71,0 H167.12 A55.71,55.71 0 0 1 222.82,55.71 V640.61 A55.71,55.71 0 0 1 167.12,696.32 H55.71 A55.71,55.71 0 0 1 0,640.61 V55.71 A55.71,55.71 0 0 1 55.71,0 Z M55.71,0 H423.36 A55.71,55.71 0 0 1 479.07,55.71 V139.26 A55.71,55.71 0 0 1 423.36,194.97 H55.71 A55.71,55.71 0 0 1 0,139.26 V55.71 A55.71,55.71 0 0 1 55.71,0 Z M55.71,250.68 H278.53 A55.71,55.71 0 0 1 334.23,306.38 V382.98 A55.71,55.71 0 0 1 278.53,438.68 H55.71 A55.71,55.71 0 0 1 0,382.98 V306.38 A55.71,55.71 0 0 1 55.71,250.68 Z" fill="#161f52"/></g><g transform="translate(-9.73 8.11)"><path d="M55.71,0 H167.12 A55.71,55.71 0 0 1 222.82,55.71 V640.61 A55.71,55.71 0 0 1 167.12,696.32 H55.71 A55.71,55.71 0 0 1 0,640.61 V55.71 A55.71,55.71 0 0 1 55.71,0 Z M55.71,0 H423.36 A55.71,55.71 0 0 1 479.07,55.71 V139.26 A55.71,55.71 0 0 1 423.36,194.97 H55.71 A55.71,55.71 0 0 1 0,139.26 V55.71 A55.71,55.71 0 0 1 55.71,0 Z M55.71,250.68 H278.53 A55.71,55.71 0 0 1 334.23,306.38 V382.98 A55.71,55.71 0 0 1 278.53,438.68 H55.71 A55.71,55.71 0 0 1 0,382.98 V306.38 A55.71,55.71 0 0 1 55.71,250.68 Z" fill="#161f52"/></g><g transform="translate(-9.22 7.68)"><path d="M55.71,0 H167.12 A55.71,55.71 0 0 1 222.82,55.71 V640.61 A55.71,55.71 0 0 1 167.12,696.32 H55.71 A55.71,55.71 0 0 1 0,640.61 V55.71 A55.71,55.71 0 0 1 55.71,0 Z M55.71,0 H423.36 A55.71,55.71 0 0 1 479.07,55.71 V139.26 A55.71,55.71 0 0 1 423.36,194.97 H55.71 A55.71,55.71 0 0 1 0,139.26 V55.71 A55.71,55.71 0 0 1 55.71,0 Z M55.71,250.68 H278.53 A55.71,55.71 0 0 1 334.23,306.38 V382.98 A55.71,55.71 0 0 1 278.53,438.68 H55.71 A55.71,55.71 0 0 1 0,382.98 V306.38 A55.71,55.71 0 0 1 55.71,250.68 Z" fill="#161f52"/></g><g transform="translate(-8.7 7.25)"><path d="M55.71,0 H167.12 A55.71,55.71 0 0 1 222.82,55.71 V640.61 A55.71,55.71 0 0 1 167.12,696.32 H55.71 A55.71,55.71 0 0 1 0,640.61 V55.71 A55.71,55.71 0 0 1 55.71,0 Z M55.71,0 H423.36 A55.71,55.71 0 0 1 479.07,55.71 V139.26 A55.71,55.71 0 0 1 423.36,194.97 H55.71 A55.71,55.71 0 0 1 0,139.26 V55.71 A55.71,55.71 0 0 1 55.71,0 Z M55.71,250.68 H278.53 A55.71,55.71 0 0 1 334.23,306.38 V382.98 A55.71,55.71 0 0 1 278.53,438.68 H55.71 A55.71,55.71 0 0 1 0,382.98 V306.38 A55.71,55.71 0 0 1 55.71,250.68 Z" fill="#161f52"/></g><g transform="translate(-8.19 6.83)"><path d="M55.71,0 H167.12 A55.71,55.71 0 0 1 222.82,55.71 V640.61 A55.71,55.71 0 0 1 167.12,696.32 H55.71 A55.71,55.71 0 0 1 0,640.61 V55.71 A55.71,55.71 0 0 1 55.71,0 Z M55.71,0 H423.36 A55.71,55.71 0 0 1 479.07,55.71 V139.26 A55.71,55.71 0 0 1 423.36,194.97 H55.71 A55.71,55.71 0 0 1 0,139.26 V55.71 A55.71,55.71 0 0 1 55.71,0 Z M55.71,250.68 H278.53 A55.71,55.71 0 0 1 334.23,306.38 V382.98 A55.71,55.71 0 0 1 278.53,438.68 H55.71 A55.71,55.71 0 0 1 0,382.98 V306.38 A55.71,55.71 0 0 1 55.71,250.68 Z" fill="#161f52"/></g><g transform="translate(-7.68 6.4)"><path d="M55.71,0 H167.12 A55.71,55.71 0 0 1 222.82,55.71 V640.61 A55.71,55.71 0 0 1 167.12,696.32 H55.71 A55.71,55.71 0 0 1 0,640.61 V55.71 A55.71,55.71 0 0 1 55.71,0 Z M55.71,0 H423.36 A55.71,55.71 0 0 1 479.07,55.71 V139.26 A55.71,55.71 0 0 1 423.36,194.97 H55.71 A55.71,55.71 0 0 1 0,139.26 V55.71 A55.71,55.71 0 0 1 55.71,0 Z M55.71,250.68 H278.53 A55.71,55.71 0 0 1 334.23,306.38 V382.98 A55.71,55.71 0 0 1 278.53,438.68 H55.71 A55.71,55.71 0 0 1 0,382.98 V306.38 A55.71,55.71 0 0 1 55.71,250.68 Z" fill="#161f52"/></g><g transform="translate(-7.17 5.97)"><path d="M55.71,0 H167.12 A55.71,55.71 0 0 1 222.82,55.71 V640.61 A55.71,55.71 0 0 1 167.12,696.32 H55.71 A55.71,55.71 0 0 1 0,640.61 V55.71 A55.71,55.71 0 0 1 55.71,0 Z M55.71,0 H423.36 A55.71,55.71 0 0 1 479.07,55.71 V139.26 A55.71,55.71 0 0 1 423.36,194.97 H55.71 A55.71,55.71 0 0 1 0,139.26 V55.71 A55.71,55.71 0 0 1 55.71,0 Z M55.71,250.68 H278.53 A55.71,55.71 0 0 1 334.23,306.38 V382.98 A55.71,55.71 0 0 1 278.53,438.68 H55.71 A55.71,55.71 0 0 1 0,382.98 V306.38 A55.71,55.71 0 0 1 55.71,250.68 Z" fill="#161f52"/></g><g transform="translate(-6.66 5.55)"><path d="M55.71,0 H167.12 A55.71,55.71 0 0 1 222.82,55.71 V640.61 A55.71,55.71 0 0 1 167.12,696.32 H55.71 A55.71,55.71 0 0 1 0,640.61 V55.71 A55.71,55.71 0 0 1 55.71,0 Z M55.71,0 H423.36 A55.71,55.71 0 0 1 479.07,55.71 V139.26 A55.71,55.71 0 0 1 423.36,194.97 H55.71 A55.71,55.71 0 0 1 0,139.26 V55.71 A55.71,55.71 0 0 1 55.71,0 Z M55.71,250.68 H278.53 A55.71,55.71 0 0 1 334.23,306.38 V382.98 A55.71,55.71 0 0 1 278.53,438.68 H55.71 A55.71,55.71 0 0 1 0,382.98 V306.38 A55.71,55.71 0 0 1 55.71,250.68 Z" fill="#161f52"/></g><g transform="translate(-6.14 5.12)"><path d="M55.71,0 H167.12 A55.71,55.71 0 0 1 222.82,55.71 V640.61 A55.71,55.71 0 0 1 167.12,696.32 H55.71 A55.71,55.71 0 0 1 0,640.61 V55.71 A55.71,55.71 0 0 1 55.71,0 Z M55.71,0 H423.36 A55.71,55.71 0 0 1 479.07,55.71 V139.26 A55.71,55.71 0 0 1 423.36,194.97 H55.71 A55.71,55.71 0 0 1 0,139.26 V55.71 A55.71,55.71 0 0 1 55.71,0 Z M55.71,250.68 H278.53 A55.71,55.71 0 0 1 334.23,306.38 V382.98 A55.71,55.71 0 0 1 278.53,438.68 H55.71 A55.71,55.71 0 0 1 0,382.98 V306.38 A55.71,55.71 0 0 1 55.71,250.68 Z" fill="#161f52"/></g><g transform="translate(-5.63 4.69)"><path d="M55.71,0 H167.12 A55.71,55.71 0 0 1 222.82,55.71 V640.61 A55.71,55.71 0 0 1 167.12,696.32 H55.71 A55.71,55.71 0 0 1 0,640.61 V55.71 A55.71,55.71 0 0 1 55.71,0 Z M55.71,0 H423.36 A55.71,55.71 0 0 1 479.07,55.71 V139.26 A55.71,55.71 0 0 1 423.36,194.97 H55.71 A55.71,55.71 0 0 1 0,139.26 V55.71 A55.71,55.71 0 0 1 55.71,0 Z M55.71,250.68 H278.53 A55.71,55.71 0 0 1 334.23,306.38 V382.98 A55.71,55.71 0 0 1 278.53,438.68 H55.71 A55.71,55.71 0 0 1 0,382.98 V306.38 A55.71,55.71 0 0 1 55.71,250.68 Z" fill="#161f52"/></g><g transform="translate(-5.12 4.27)"><path d="M55.71,0 H167.12 A55.71,55.71 0 0 1 222.82,55.71 V640.61 A55.71,55.71 0 0 1 167.12,696.32 H55.71 A55.71,55.71 0 0 1 0,640.61 V55.71 A55.71,55.71 0 0 1 55.71,0 Z M55.71,0 H423.36 A55.71,55.71 0 0 1 479.07,55.71 V139.26 A55.71,55.71 0 0 1 423.36,194.97 H55.71 A55.71,55.71 0 0 1 0,139.26 V55.71 A55.71,55.71 0 0 1 55.71,0 Z M55.71,250.68 H278.53 A55.71,55.71 0 0 1 334.23,306.38 V382.98 A55.71,55.71 0 0 1 278.53,438.68 H55.71 A55.71,55.71 0 0 1 0,382.98 V306.38 A55.71,55.71 0 0 1 55.71,250.68 Z" fill="#161f52"/></g><g transform="translate(-4.61 3.84)"><path d="M55.71,0 H167.12 A55.71,55.71 0 0 1 222.82,55.71 V640.61 A55.71,55.71 0 0 1 167.12,696.32 H55.71 A55.71,55.71 0 0 1 0,640.61 V55.71 A55.71,55.71 0 0 1 55.71,0 Z M55.71,0 H423.36 A55.71,55.71 0 0 1 479.07,55.71 V139.26 A55.71,55.71 0 0 1 423.36,194.97 H55.71 A55.71,55.71 0 0 1 0,139.26 V55.71 A55.71,55.71 0 0 1 55.71,0 Z M55.71,250.68 H278.53 A55.71,55.71 0 0 1 334.23,306.38 V382.98 A55.71,55.71 0 0 1 278.53,438.68 H55.71 A55.71,55.71 0 0 1 0,382.98 V306.38 A55.71,55.71 0 0 1 55.71,250.68 Z" fill="#161f52"/></g><g transform="translate(-4.1 3.41)"><path d="M55.71,0 H167.12 A55.71,55.71 0 0 1 222.82,55.71 V640.61 A55.71,55.71 0 0 1 167.12,696.32 H55.71 A55.71,55.71 0 0 1 0,640.61 V55.71 A55.71,55.71 0 0 1 55.71,0 Z M55.71,0 H423.36 A55.71,55.71 0 0 1 479.07,55.71 V139.26 A55.71,55.71 0 0 1 423.36,194.97 H55.71 A55.71,55.71 0 0 1 0,139.26 V55.71 A55.71,55.71 0 0 1 55.71,0 Z M55.71,250.68 H278.53 A55.71,55.71 0 0 1 334.23,306.38 V382.98 A55.71,55.71 0 0 1 278.53,438.68 H55.71 A55.71,55.71 0 0 1 0,382.98 V306.38 A55.71,55.71 0 0 1 55.71,250.68 Z" fill="#161f52"/></g><g transform="translate(-3.58 2.99)"><path d="M55.71,0 H167.12 A55.71,55.71 0 0 1 222.82,55.71 V640.61 A55.71,55.71 0 0 1 167.12,696.32 H55.71 A55.71,55.71 0 0 1 0,640.61 V55.71 A55.71,55.71 0 0 1 55.71,0 Z M55.71,0 H423.36 A55.71,55.71 0 0 1 479.07,55.71 V139.26 A55.71,55.71 0 0 1 423.36,194.97 H55.71 A55.71,55.71 0 0 1 0,139.26 V55.71 A55.71,55.71 0 0 1 55.71,0 Z M55.71,250.68 H278.53 A55.71,55.71 0 0 1 334.23,306.38 V382.98 A55.71,55.71 0 0 1 278.53,438.68 H55.71 A55.71,55.71 0 0 1 0,382.98 V306.38 A55.71,55.71 0 0 1 55.71,250.68 Z" fill="#161f52"/></g><g transform="translate(-3.07 2.56)"><path d="M55.71,0 H167.12 A55.71,55.71 0 0 1 222.82,55.71 V640.61 A55.71,55.71 0 0 1 167.12,696.32 H55.71 A55.71,55.71 0 0 1 0,640.61 V55.71 A55.71,55.71 0 0 1 55.71,0 Z M55.71,0 H423.36 A55.71,55.71 0 0 1 479.07,55.71 V139.26 A55.71,55.71 0 0 1 423.36,194.97 H55.71 A55.71,55.71 0 0 1 0,139.26 V55.71 A55.71,55.71 0 0 1 55.71,0 Z M55.71,250.68 H278.53 A55.71,55.71 0 0 1 334.23,306.38 V382.98 A55.71,55.71 0 0 1 278.53,438.68 H55.71 A55.71,55.71 0 0 1 0,382.98 V306.38 A55.71,55.71 0 0 1 55.71,250.68 Z" fill="#161f52"/></g><g transform="translate(-2.56 2.13)"><path d="M55.71,0 H167.12 A55.71,55.71 0 0 1 222.82,55.71 V640.61 A55.71,55.71 0 0 1 167.12,696.32 H55.71 A55.71,55.71 0 0 1 0,640.61 V55.71 A55.71,55.71 0 0 1 55.71,0 Z M55.71,0 H423.36 A55.71,55.71 0 0 1 479.07,55.71 V139.26 A55.71,55.71 0 0 1 423.36,194.97 H55.71 A55.71,55.71 0 0 1 0,139.26 V55.71 A55.71,55.71 0 0 1 55.71,0 Z M55.71,250.68 H278.53 A55.71,55.71 0 0 1 334.23,306.38 V382.98 A55.71,55.71 0 0 1 278.53,438.68 H55.71 A55.71,55.71 0 0 1 0,382.98 V306.38 A55.71,55.71 0 0 1 55.71,250.68 Z" fill="#161f52"/></g><g transform="translate(-2.05 1.71)"><path d="M55.71,0 H167.12 A55.71,55.71 0 0 1 222.82,55.71 V640.61 A55.71,55.71 0 0 1 167.12,696.32 H55.71 A55.71,55.71 0 0 1 0,640.61 V55.71 A55.71,55.71 0 0 1 55.71,0 Z M55.71,0 H423.36 A55.71,55.71 0 0 1 479.07,55.71 V139.26 A55.71,55.71 0 0 1 423.36,194.97 H55.71 A55.71,55.71 0 0 1 0,139.26 V55.71 A55.71,55.71 0 0 1 55.71,0 Z M55.71,250.68 H278.53 A55.71,55.71 0 0 1 334.23,306.38 V382.98 A55.71,55.71 0 0 1 278.53,438.68 H55.71 A55.71,55.71 0 0 1 0,382.98 V306.38 A55.71,55.71 0 0 1 55.71,250.68 Z" fill="#161f52"/></g><g transform="translate(-1.54 1.28)"><path d="M55.71,0 H167.12 A55.71,55.71 0 0 1 222.82,55.71 V640.61 A55.71,55.71 0 0 1 167.12,696.32 H55.71 A55.71,55.71 0 0 1 0,640.61 V55.71 A55.71,55.71 0 0 1 55.71,0 Z M55.71,0 H423.36 A55.71,55.71 0 0 1 479.07,55.71 V139.26 A55.71,55.71 0 0 1 423.36,194.97 H55.71 A55.71,55.71 0 0 1 0,139.26 V55.71 A55.71,55.71 0 0 1 55.71,0 Z M55.71,250.68 H278.53 A55.71,55.71 0 0 1 334.23,306.38 V382.98 A55.71,55.71 0 0 1 278.53,438.68 H55.71 A55.71,55.71 0 0 1 0,382.98 V306.38 A55.71,55.71 0 0 1 55.71,250.68 Z" fill="#161f52"/></g><g transform="translate(-1.02 0.85)"><path d="M55.71,0 H167.12 A55.71,55.71 0 0 1 222.82,55.71 V640.61 A55.71,55.71 0 0 1 167.12,696.32 H55.71 A55.71,55.71 0 0 1 0,640.61 V55.71 A55.71,55.71 0 0 1 55.71,0 Z M55.71,0 H423.36 A55.71,55.71 0 0 1 479.07,55.71 V139.26 A55.71,55.71 0 0 1 423.36,194.97 H55.71 A55.71,55.71 0 0 1 0,139.26 V55.71 A55.71,55.71 0 0 1 55.71,0 Z M55.71,250.68 H278.53 A55.71,55.71 0 0 1 334.23,306.38 V382.98 A55.71,55.71 0 0 1 278.53,438.68 H55.71 A55.71,55.71 0 0 1 0,382.98 V306.38 A55.71,55.71 0 0 1 55.71,250.68 Z" fill="#161f52"/></g><g transform="translate(-0.51 0.43)"><path d="M55.71,0 H167.12 A55.71,55.71 0 0 1 222.82,55.71 V640.61 A55.71,55.71 0 0 1 167.12,696.32 H55.71 A55.71,55.71 0 0 1 0,640.61 V55.71 A55.71,55.71 0 0 1 55.71,0 Z M55.71,0 H423.36 A55.71,55.71 0 0 1 479.07,55.71 V139.26 A55.71,55.71 0 0 1 423.36,194.97 H55.71 A55.71,55.71 0 0 1 0,139.26 V55.71 A55.71,55.71 0 0 1 55.71,0 Z M55.71,250.68 H278.53 A55.71,55.71 0 0 1 334.23,306.38 V382.98 A55.71,55.71 0 0 1 278.53,438.68 H55.71 A55.71,55.71 0 0 1 0,382.98 V306.38 A55.71,55.71 0 0 1 55.71,250.68 Z" fill="#161f52"/></g><path d="M55.71,0 H167.12 A55.71,55.71 0 0 1 222.82,55.71 V640.61 A55.71,55.71 0 0 1 167.12,696.32 H55.71 A55.71,55.71 0 0 1 0,640.61 V55.71 A55.71,55.71 0 0 1 55.71,0 Z M55.71,0 H423.36 A55.71,55.71 0 0 1 479.07,55.71 V139.26 A55.71,55.71 0 0 1 423.36,194.97 H55.71 A55.71,55.71 0 0 1 0,139.26 V55.71 A55.71,55.71 0 0 1 55.71,0 Z M55.71,250.68 H278.53 A55.71,55.71 0 0 1 334.23,306.38 V382.98 A55.71,55.71 0 0 1 278.53,438.68 H55.71 A55.71,55.71 0 0 1 0,382.98 V306.38 A55.71,55.71 0 0 1 55.71,250.68 Z" fill="#ffffff"/></g></g></svg>