<?xml version="1.0" encoding="UTF-8"?>
<svg xmlns="http://www.w3.org/2000/svg" viewBox="0 0 512 512" width="512" height="512">
<defs><clipPath id="clip"><rect x="0" y="0" width="512" height="512" rx="112.64" ry="112.64"/></clipPath><linearGradient id="bgGradient" x1="0%" y1="0%" x2="100%" y2="100%"><stop offset="0%" stop-color="#5a6fe0"/><stop offset="50%" stop-color="#3d4db7"/><stop offset="95%" stop-color="#2a3996"/></linearGradient></defs><rect x="0" y="0" width="512" height="512" rx="112.64" ry="112.64" fill="url(#bgGradient)"/><g clip-path="url(#clip)"><g transform="matrix(1 0 -0.176327 1 183.32 76.8)"><g transform="translate(-30.72 25.6)"><path d="M27.85,0 H83.56 A27.85,27.85 0 0 1 111.41,27.85 V320.31 A27.85,27.85 0 0 1 83.56,348.16 H27.85 A27.85,27.85 0 0 1 0,320.31 V27.85 A27.85,27.85 0 0 1 27.85,0 Z M27.85,0 H211.68 A27.85,27.85 0 0 1 239.53,27.85 V69.63 A27.85,27.85 0 0 1 211.68,97.48 H27.85 A27.85,27.85 0 0 1 0,69.63 V27.85 A27.85,27.85 0 0 1 27.85,0 Z M27.85,125.34 H139.26 A27.85,27.85 0 0 1 167.12,153.19 V191.49 A27.85,27.85 0 0 1 139.26,219.34 H27.85 A27.85,27.85 0 0 1 0,191.49 V153.19 A27.85,27.85 0 0 1 27.85,125.34 Z" fill="#161f52"/></g><g transform="translate(-30.21 25.17)"><path d="M27.85,0 H83.56 A27.85,27.85 0 0 1 111.41,27.85 V320.31 A27.85,27.85 0 0 1 83.56,348.16 H27.85 A27.85,27.85 0 0 1 0,320.31 V27.85 A27.85,27.85 0 0 1 27.85,0 Z M27.85,0 H211.68 A27.85,27.85 0 0 1 239.53,27.85 V69.63 A27.85,27.85 0 0 1 211.68,97.48 H27.85 A27.85,27.85 0 0 1 0,69.63 V27.85 A27.85,27.85 0 0 1 27.85,0 Z M27.85,125.34 H139.26 A27.85,27.85 0 0 1 167.12,153.19 V191.49 A27.85,27.85 0 0 1 139.26,219.34 H27.85 A27.85,27.85 0 0 1 0,191.49 V153.19 A27.85,27.85 0 0 1 27.85,125.34 Z" fill="#161f52"/></g><g transform="translate(-29.7 24.75)"><path d="M27.85,0 H83.56 A27.85,27.85 0 0 1 111.41,27.85 V320.31 A27.85,27.85 0 0 1 83.56,348.16 H27.85 A27.85,27.85 0 0 1 0,320.31 V27.85 A27.85,27.85 0 0 1 27.85,0 Z M27.85,0 H211.68 A27.85,27.85 0 0 1 239.53,27.85 V69.63 A27.85,27.85 0 0 1 211.68,97.48 H27.85 A27.85,27.85 0 0 1 0,69.63 V27.85 A27.85,27.85 0 0 1 27.85,0 Z M27.85,125.34 H139.26 A27.85,27.85 0 0 1 167.12,153.19 V191.49 A27.85,27.85 0 0 1 139.26,219.34 H27.85 A27.85,27.85 0 0 1 0,191.49 V153.19 A27.85,27.85 0 0 1 27.85,125.34 Z" fill="#161f52"/></g><g transform="translate(-29.18 24.32)"><path d="M27.85,0 H83.56 A27.85,27.85 0 0 1 111.41,27.85 V320.31 A27.85,27.85 0 0 1 83.56,348.16 H27.85 A27.85,27.85 0 0 1 0,320.31 V27.85 A27.85,27.85 0 0 1 27.85,0 Z M27.85,0 H211.68 A27.85,27.85 0 0 1 239.53,27.85 V69.63 A27.85,27.85 0 0 1 211.68,97.48 H27.85 A27.85,27.85 0 0 1 0,69.63 V27.85 A27.85,27.85 0 0 1 27.85,0 Z M27.85,125.34 H139.26 A27.85,27.85 0 0 1 167.12,153.19 V191.49 A27.85,27.85 0 0 1 139.26,219.34 H27.85 A27.85,27.85 0 0 1 0,191.49 V153.19 A27.85,27.85 0 0 1 27.85,125.34 Z" fill="#161f52"/></g><g transform="translate(-28.67 23.89)"><path d="M27.85,0 H83.56 A27.85,27.85 0 0 1 111.41,27.85 V320.31 A27.85,27.85 0 0 1 83.56,348.16 H27.85 A27.85,27.85 0 0 1 0,320.31 V27.85 A27.85,27.85 0 0 1 27.85,0 Z M27.85,0 H211.68 A27.85,27.85 0 0 1 239.53,27.85 V69.63 A27.85,27.85 0 0 1 211.68,97.48 H27.85 A27.85,27.85 0 0 1 0,69.63 V27.85 A27.85,27.85 0 0 1 27.85,0 Z M27.85,125.34 H139.26 A27.85,27.85 0 0 1 167.12,153.19 V191.49 A27.85,27.85 0 0 1 139.26,219.34 H27.85 A27.85,27.85 0 0 1 0,191.49 V153.19 A27.85,27.85 0 0 1 27.85,125.34 Z" fill="#161f52"/></g><g transform="translate(-28.16 23.47)"><path d="M27.85,0 H83.56 A27.85,27.85 0 0 1 111.41,27.85 V320.31 A27.85,27.85 0 0 1 83.56,348.16 H27.85 A27.85,27.85 0 0 1 0,320.31 V27.85 A27.85,27.85 0 0 1 27.85,0 Z M27.85,0 H211.68 A27.85,27.85 0 0 1 239.53,27.85 V69.63 A27.85,27.85 0 0 1 211.68,97.48 H27.85 A27.85,27.85 0 0 1 0,69.63 V27.85 A27.85,27.85 0 0 1 27.85,0 Z M27.85,125.34 H139.26 A27.85,27.85 0 0 1 167.12,153.19 V191.49 A27.85,27.85 0 0 1 139.26,219.34 H27.85 A27.85,27.85 0 0 1 0,191.49 V153.19 A27.85,27.85 0 0 1 27.85,125.34 Z" fill="#161f52"/></g><g transform="translate(-27.65 23.04)"><path d="M27.85,0 H83.56 A27.85,27.85 0 0 1 111.41,27.85 V320.31 A27.85,27.85 0 0 1 83.56,348.16 H27.85 A27.85,27.85 0 0 1 0,320.31 V27.85 A27.85,27.85 0 0 1 27.85,0 Z M27.85,0 H211.68 A27.85,27.85 0 0 1 239.53,27.85 V69.63 A27.85,27.85 0 0 1 211.68,97.48 H27.85 A27.85,27.85 0 0 1 0,69.63 V27.85 A27.85,27.85 0 0 1 27.85,0 Z M27.85,125.34 H139.26 A27.85,27.85 0 0 1 167.12,153.19 V191.49 A27.85,27.85 0 0 1 139.26,219.34 H27.85 A27.85,27.85 0 0 1 0,191.49 V153.19 A27.85,27.85 0 0 1 27.85,125.34 Z" fill="#161f52"/></g><g transform="translate(-27.14 22.61)"><path d="M27.85,0 H83.56 A27.85,27.85 0 0 1 111.41,27.85 V320.31 A27.85,27.85 0 0 1 83.56,348.16 H27.85 A27.85,27.85 0 0 1 0,320.31 V27.85 A27.85,27.85 0 0 1 27.85,0 Z M27.85,0 H211.68 A27.85,27.85 0 0 1 239.53,27.85 V69.63 A27.85,27.85 0 0 1 211.68,97.48 H27.85 A27.85,27.85 0 0 1 0,69.63 V27.85 A27.85,27.85 0 0 1 27.85,0 Z M27.85,125.34 H139.26 A27.85,27.85 0 0 1 167.12,153.19 V191.49 A27.85,27.85 0 0 1 139.26,219.34 H27.85 A27.85,27.85 0 0 1 0,191.49 V153.19 A27.85,27.85 0 0 1 27.85,125.34 Z" fill="#161f52"/></g><g transform="translate(-26.62 22.19)"><path d="M27.85,0 H83.56 A27.85,27.85 0 0 1 111.41,27.85 V320.31 A27.85,27.85 0 0 1 83.56,348.16 H27.85 A27.85,27.85 0 0 1 0,320.31 V27.85 A27.85,27.85 0 0 1 27.85,0 Z M27.85,0 H211.68 A27.85,27.85 0 0 1 239.53,27.85 V69.63 A27.85,27.85 0 0 1 211.68,97.48 H27.85 A27.85,27.85 0 0 1 0,69.63 V27.85 A27.85,27.85 0 0 1 27.85,0 Z M27.85,125.34 H139.26 A27.85,27.85 0 0 1 167.12,153.19 V191.49 A27.85,27.85 0 0 1 139.26,219.34 H27.85 A27.85,27.85 0 0 1 0,191.49 V153.19 A27.85,27.85 0 0 1 27.85,125.34 Z" fill="#161f52"/></g><g transform="translate(-26.11 21.76)"><path d="M27.85,0 H83.56 A27.85,27.85 0 0 1 111.41,27.85 V320.31 A27.85,27.85 0 0 1 83.56,348.16 H27.85 A27.85,27.85 0 0 1 0,320.31 V27.85 A27.85,27.85 0 0 1 27.85,0 Z M27.85,0 H211.68 A27.85,27.85 0 0 1 239.53,27.85 V69.63 A27.85,27.85 0 0 1 211.68,97.48 H27.85 A27.85,27.85 0 0 1 0,69.63 V27.85 A27.85,27.85 0 0 1 27.85,0 Z M27.85,125.34 H139.26 A27.85,27.85 0 0 1 167.12,153.19 V191.49 A27.85,27.85 0 0 1 139.26,219.34 H27.85 A27.85,27.85 0 0 1 0,191.49 V153.19 A27.85,27.85 0 0 1 27.85,125.34 Z" fill="#161f52"/></g><g transform="translate(-25.6 21.33)"><path d="M27.85,0 H83.56 A27.85,27.85 0 0 1 111.41,27.85 V320.31 A27.85,27.85 0 0 1 83.56,348.16 H27.85 A27.85,27.85 0 0 1 0,320.31 V27.85 A27.85,27.85 0 0 1 27.85,0 Z M27.85,0 H211.68 A27.85,27.85 0 0 1 239.53,27.85 V69.63 A27.85,27.85 0 0 1 211.68,97.48 H27.85 A27.85,27.85 0 0 1 0,69.63 V27.85 A27.85,27.85 0 0 1 27.85,0 Z M27.85,125.34 H139.26 A27.85,27.85 0 0 1 167.12,153.19 V191.49 A27.85,27.85 0 0 1 139.26,219.34 H27.85 A27.85,27.85 0 0 1 0,191.49 V153.19 A27.85,27.85 0 0 1 27.85,125.34 Z" fill="#161f52"/></g><g transform="translate(-25.09 20.91)"><path d="M27.85,0 H83.56 A27.85,27.85 0 0 1 111.41,27.85 V320.31 A27.85,27.85 0 0 1 83.56,348.16 H27.85 A27.85,27.85 0 0 1 0,320.31 V27.85 A27.85,27.85 0 0 1 27.85,0 Z M27.85,0 H211.68 A27.85,27.85 0 0 1 239.53,27.85 V69.63 A27.85,27.85 0 0 1 211.68,97.48 H27.85 A27.85,27.85 0 0 1 0,69.63 V27.85 A27.85,27.85 0 0 1 27.85,0 Z M27.85,125.34 H139.26 A27.85,27.85 0 0 1 167.12,153.19 V191.49 A27.85,27.85 0 0 1 139.26,219.34 H27.85 A27.85,27.85 0 0 1 0,191.49 V153.19 A27.85,27.85 0 0 1 27.85,125.34 Z" fill="#161f52"/></g><g transform="translate(-24.58 20.48)"><path d="M27.85,0 H83.56 A27.85,27.85 0 0 1 111.41,27.85 V320.31 A27.85,27.85 0 0 1 83.56,348.16 H27.85 A27.85,27.85 0 0 1 0,320.31 V27.85 A27.85,27.85 0 0 1 27.85,0 Z M27.85,0 H211.68 A27.85,27.85 0 0 1 239.53,27.85 V69.63 A27.85,27.85 0 0 1 211.68,97.48 H27.85 A27.85,27.85 0 0 1 0,69.63 V27.85 A27.85,27.85 0 0 1 27.85,0 Z M27.85,125.34 H139.26 A27.85,27.85 0 0 1 167.12,153.19 V191.49 A27.85,27.85 0 0 1 139.26,219.34 H27.85 A27.85,27.85 0 0 1 0,191.49 V153.19 A27.85,27.85 0 0 1 27.85,125.34 Z" fill="#161f52"/></g><g transform="translate(-24.06 20.05)"><path d="M27.85,0 H83.56 A27.85,27.85 0 0 1 111.41,27.85 V320.31 A27.85,27.85 0 0 1 83.56,348.16 H27.85 A27.85,27.85 0 0 1 0,320.31 V27.85 A27.85,27.85 0 0 1 27.85,0 Z M27.85,0 H211.68 A27.85,27.85 0 0 1 239.53,27.85 V69.63 A27.85,27.85 0 0 1 211.68,97.48 H27.85 A27.85,27.85 0 0 1 0,69.63 V27.85 A27.85,27.85 0 0 1 27.85,0 Z M27.85,125.34 H139.26 A27.85,27.85 0 0 1 167.12,153.19 V191.49 A27.85,27.85 0 0 1 139.26,219.34 H27.85 A27.85,27.85 0 0 1 0,191.49 V153.19 A27.85,27.85 0 0 1 27.85,125.34 Z" fill="#161f52"/></g><g transform="translate(-23.55 19.63)"><path d="M27.85,0 H83.56 A27.85,27.85 0 0 1 111.41,27.85 V320.31 A27.85,27.85 0 0 1 83.56,348.16 H27.85 A27.85,27.85 0 0 1 0,320.31 V27.85 A27.85,27.85 0 0 1 27.85,0 Z M27.85,0 H211.68 A27.85,27.85 0 0 1 239.53,27.85 V69.63 A27.85,27.85 0 0 1 211.68,97.48 H27.85 A27.85,27.85 0 0 1 0,69.63 V27.85 A27.85,27.85 0 0 1 27.85,0 Z M27.85,125.34 H139.26 A27.85,27.85 0 0 1 167.12,153.19 V191.49 A27.85,27.85 0 0 1 139.26,219.34 H27.85 A27.85,27.85 0 0 1 0,191.49 V153.19 A27.85,27.85 0 0 1 27.85,125.34 Z" fill="#161f52"/></g><g transform="translate(-23.04 19.2)"><path d="M27.85,0 H83.56 A27.85,27.85 0 0 1 111.41,27.85 V320.31 A27.85,27.85 0 0 1 83.56,348.16 H27.85 A27.85,27.85 0 0 1 0,320.31 V27.85 A27.85,27.85 0 0 1 27.85,0 Z M27.85,0 H211.68 A27.85,27.85 0 0 1 239.53,27.85 V69.63 A27.85,27.85 0 0 1 211.68,97.48 H27.85 A27.85,27.85 0 0 1 0,69.63 V27.85 A27.85,27.85 0 0 1 27.85,0 Z M27.85,125.34 H139.26 A27.85,27.85 0 0 1 167.12,153.19 V191.49 A27.85,27.85 0 0 1 139.26,219.34 H27.85 A27.85,27.85 0 0 1 0,191.49 V153.19 A27.85,27.85 0 0 1 27.85,125.34 Z" fill="#161f52"/></g><g transform="translate(-22.53 18.77)"><path d="M27.85,0 H83.56 A27.85,27.85 0 0 1 111.41,27.85 V320.31 A27.85,27.85 0 0 1 83.56,348.16 H27.85 A27.85,27.85 0 0 1 0,320.31 V27.85 A27.85,27.85 0 0 1 27.85,0 Z M27.85,0 H211.68 A27.85,27.85 0 0 1 239.53,27.85 V69.63 A27.85,27.85 0 0 1 211.68,97.48 H27.85 A27.85,27.85 0 0 1 0,69.63 V27.85 A27.85,27.85 0 0 1 27.85,0 Z M27.85,125.34 H139.26 A27.85,27.85 0 0 1 167.12,153.19 V191.49 A27.85,27.85 0 0 1 139.26,219.34 H27.85 A27.85,27.85 0 0 1 0,191.49 V153.19 A27.85,27.85 0 0 1 27.85,125.34 Z" fill="#161f52"/></g><g transform="translate(-22.02 18.35)"><path d="M27.85,0 H83.56 A27.85,27.85 0 0 1 111.41,27.85 V320.31 A27.85,27.85 0 0 1 83.56,348.16 H27.85 A27.85,27.85 0 0 1 0,320.31 V27.85 A27.85,27.85 0 0 1 27.85,0 Z M27.85,0 H211.68 A27.85,27.85 0 0 1 239.53,27.85 V69.63 A27.85,27.85 0 0 1 211.68,97.48 H27.85 A27.85,27.85 0 0 1 0,69.63 V27.85 A27.85,27.85 0 0 1 27.85,0 Z M27.85,125.34 H139.26 A27.85,27.85 0 0 1 167.12,153.19 V191.49 A27.85,27.85 0 0 1 139.26,219.34 H27.85 A27.85,27.85 0 0 1 0,191.49 V153.19 A27.85,27.85 0 0 1 27.85,125.34 Z" fill="#161f52"/></g><g transform="translate(-21.5 17.92)"><path d="M27.85,0 H83.56 A27.85,27.85 0 0 1 111.41,27.85 V320.31 A27.85,27.85 0 0 1 83.56,348.16 H27.85 A27.85,27.85 0 0 1 0,320.31 V27.85 A27.85,27.85 0 0 1 27.85,0 Z M27.85,0 H211.68 A27.85,27.85 0 0 1 239.53,27.85 V69.63 A27.85,27.85 0 0 1 211.68,97.48 H27.85 A27.85,27.85 0 0 1 0,69.63 V27.85 A27.85,27.85 0 0 1 27.85,0 Z M27.85,125.34 H139.26 A27.85,27.85 0 0 1 167.12,153.19 V191.49 A27.85,27.85 0 0 1 139.26,219.34 H27.85 A27.85,27.85 0 0 1 0,191.49 V153.19 A27.85,27.85 0 0 1 27.85,125.34 Z" fill="#161f52"/></g><g transform="translate(-20.99 17.49)"><path d="M27.85,0 H83.56 A27.85,27.85 0 0 1 111.41,27.85 V320.31 A27.85,27.85 0 0 1 83.56,348.16 H27.85 A27.85,27.85 0 0 1 0,320.31 V27.85 A27.85,27.85 0 0 1 27.85,0 Z M27.85,0 H211.68 A27.85,27.85 0 0 1 239.53,27.85 V69.63 A27.85,27.85 0 0 1 211.68,97.48 H27.85 A27.85,27.85 0 0 1 0,69.63 V27.85 A27.85,27.85 0 0 1 27.85,0 Z M27.85,125.34 H139.26 A27.85,27.85 0 0 1 167.12,153.19 V191.49 A27.85,27.85 0 0 1 139.26,219.34 H27.85 A27.85,27.85 0 0 1 0,191.49 V153.19 A27.85,27.85 0 0 1 27.85,125.34 Z" fill="#161f52"/></g><g transform="translate(-20.48 17.07)"><path d="M27.85,0 H83.56 A27.85,27.85 0 0 1 111.41,27.85 V320.31 A27.85,27.85 0 0 1 83.56,348.16 H27.85 A27.85,27.85 0 0 1 0,320.31 V27.85 A27.85,27.85 0 0 1 27.85,0 Z M27.85,0 H211.68 A27.85,27.85 0 0 1 239.53,27.85 V69.63 A27.85,27.85 0 0 1 211.68,97.48 H27.85 A27.85,27.85 0 0 1 0,69.63 V27.85 A27.85,27.85 0 0 1 27.85,0 Z M27.85,125.34 H139.26 A27.85,27.85 0 0 1 167.12,153.19 V191.49 A27.85,27.85 0 0 1 139.26,219.34 H27.85 A27.85,27.85 0 0 1 0,191.49 V153.19 A27.85,27.85 0 0 1 27.85,125.34 Z" fill="#161f52"/></g><g transform="translate(-19.97 16.64)"><path d="M27.85,0 H83.56 A27.85,27.85 0 0 1 111.41,27.85 V320.31 A27.85,27.85 0 0 1 83.56,348.16 H27.85 A27.85,27.85 0 0 1 0,320.31 V27.85 A27.85,27.85 0 0 1 27.85,0 Z M27.85,0 H211.68 A27.85,27.85 0 0 1 239.53,27.85 V69.63 A27.85,27.85 0 0 1 211.68,97.48 H27.85 A27.85,27.85 0 0 1 0,69.63 V27.85 A27.85,27.85 0 0 1 27.85,0 Z M27.85,125.34 H139.26 A27.85,27.85 0 0 1 167.12,153.19 V191.49 A27.85,27.85 0 0 1 139.26,219.34 H27.85 A27.85,27.85 0 0 1 0,191.49 V153.19 A27.85,27.85 0 0 1 27.85,125.34 Z" fill="#161f52"/></g><g transform="translate(-19.46 16.21)"><path d="M27.85,0 H83.56 A27.85,27.85 0 0 1 111.41,27.85 V320.31 A27.85,27.85 0 0 1 83.56,348.16 H27.85 A27.85,27.85 0 0 1 0,320.31 V27.85 A27.85,27.85 0 0 1 27.85,0 Z M27.85,0 H211.68 A27.85,27.85 0 0 1 239.53,27.85 V69.63 A27.85,27.85 0 0 1 211.68,97.48 H27.85 A27.85,27.85 0 0 1 0,69.63 V27.85 A27.85,27.85 0 0 1 27.85,0 Z M27.85,125.34 H139.26 A27.85,27.85 0 0 1 167.12,153.19 V191.49 A27.85,27.85 0 0 1 139.26,219.34 H27.85 A27.85,27.85 0 0 1 0,191.49 V153.19 A27.85,27.85 0 0 1 27.85,125.34 Z" fill="#161f52"/></g><g transform="translate(-18.94 15.79)"><path d="M27.85,0 H83.56 A27.85,27.85 0 0 1 111.41,27.85 V320.31 A27.85,27.85 0 0 1 83.56,348.16 H27.85 A27.85,27.85 0 0 1 0,320.31 V27.85 A27.85,27.85 0 0 1 27.85,0 Z M27.85,0 H211.68 A27.85,27.85 0 0 1 239.53,27.85 V69.63 A27.85,27.85 0 0 1 211.68,97.48 H27.85 A27.85,27.85 0 0 1 0,69.63 V27.85 A27.85,27.85 0 0 1 27.85,0 Z M27.85,125.34 H139.26 A27.85,27.85 0 0 1 167.12,153.19 V191.49 A27.85,27.85 0 0 1 139.26,219.34 H27.85 A27.85,27.85 0 0 1 0,191.49 V153.19 A27.85,27.85 0 0 1 27.85,125.34 Z" fill="#161f52"/></g><g transform="translate(-18.43 15.36)"><path d="M27.85,0 H83.56 A27.85,27.85 0 0 1 111.41,27.85 V320.31 A27.85,27.85 0 0 1 83.56,348.16 H27.85 A27.85,27.85 0 0 1 0,320.31 V27.85 A27.85,27.85 0 0 1 27.85,0 Z M27.85,0 H211.68 A27.85,27.85 0 0 1 239.53,27.85 V69.63 A27.85,27.85 0 0 1 211.68,97.48 H27.85 A27.85,27.85 0 0 1 0,69.63 V27.85 A27.85,27.85 0 0 1 27.85,0 Z M27.85,125.34 H139.26 A27.85,27.85 0 0 1 167.12,153.19 V191.49 A27.85,27.85 0 0 1 139.26,219.34 H27.85 A27.85,27.85 0 0 1 0,191.49 V153.19 A27.85,27.85 0 0 1 27.85,125.34 Z" fill="#161f52"/></g><g transform="translate(-17.92 14.93)"><path d="M27.85,0 H83.56 A27.85,27.85 0 0 1 111.41,27.85 V320.31 A27.85,27.85 0 0 1 83.56,348.16 H27.85 A27.85,27.85 0 0 1 0,320.31 V27.85 A27.85,27.85 0 0 1 27.85,0 Z M27.85,0 H211.68 A27.85,27.85 0 0 1 239.53,27.85 V69.63 A27.85,27.85 0 0 1 211.68,97.48 H27.85 A27.85,27.85 0 0 1 0,69.63 V27.85 A27.85,27.85 0 0 1 27.85,0 Z M27.85,125.34 H139.26 A27.85,27.85 0 0 1 167.12,153.19 V191.49 A27.85,27.85 0 0 1 139.26,219.34 H27.85 A27.85,27.85 0 0 1 0,191.49 V153.19 A27.85,27.85 0 0 1 27.85,125.34 Z" fill="#161f52"/></g><g transform="translate(-17.41 14.51)"><path d="M27.85,0 H83.56 A27.85,27.85 0 0 1 111.41,27.85 V320.31 A27.85,27.85 0 0 1 83.56,348.16 H27.85 A27.85,27.85 0 0 1 0,320.31 V27.85 A27.85,27.85 0 0 1 27.85,0 Z M27.85,0 H211.68 A27.85,27.85 0 0 1 239.53,27.85 V69.63 A27.85,27.85 0 0 1 211.68,97.48 H27.85 A27.85,27.85 0 0 1 0,69.63 V27.85 A27.85,27.85 0 0 1 27.85,0 Z M27.85,125.34 H139.26 A27.85,27.85 0 0 1 167.12,153.19 V191.49 A27.85,27.85 0 0 1 139.26,219.34 H27.85 A27.85,27.85 0 0 1 0,191.49 V153.19 A27.85,27.85 0 0 1 27.85,125.34 Z" fill="#161f52"/></g><g transform="translate(-16.9 14.08)"><path d="M27.85,0 H83.56 A27.85,27.85 0 0 1 111.41,27.85 V320.31 A27.85,27.85 0 0 1 83.56,348.16 H27.85 A27.85,27.85 0 0 1 0,320.31 V27.85 A27.85,27.85 0 0 1 27.85,0 Z M27.85,0 H211.68 A27.85,27.85 0 0 1 239.53,27.85 V69.63 A27.85,27.85 0 0 1 211.68,97.48 H27.85 A27.85,27.85 0 0 1 0,69.63 V27.85 A27.85,27.85 0 0 1 27.85,0 Z M27.85,125.34 H139.26 A27.85,27.85 0 0 1 167.12,153.19 V191.49 A27.85,27.85 0 0 1 139.26,219.34 H27.85 A27.85,27.85 0 0 1 0,191.49 V153.19 A27.85,27.85 0 0 1 27.85,125.34 Z" fill="#161f52"/></g><g transform="translate(-16.38 13.65)"><path d="M27.85,0 H83.56 A27.85,27.85 0 0 1 111.41,27.85 V320.31 A27.85,27.85 0 0 1 83.56,348.16 H27.85 A27.85,27.85 0 0 1 0,320.31 V27.85 A27.85,27.85 0 0 1 27.85,0 Z M27.85,0 H211.68 A27.85,27.85 0 0 1 239.53,27.85 V69.63 A27.85,27.85 0 0 1 211.68,97.48 H27.85 A27.85,27.85 0 0 1 0,69.63 V27.85 A27.85,27.85 0 0 1 27.85,0 Z M27.85,125.34 H139.26 A27.85,27.85 0 0 1 167.12,153.19 V191.49 A27.85,27.85 0 0 1 139.26,219.34 H27.85 A27.85,27.85 0 0 1 0,191.49 V153.19 A27.85,27.85 0 0 1 27.85,125.34 Z" fill="#161f52"/></g><g transform="translate(-15.87 13.23)"><path d="M27.85,0 H83.56 A27.85,27.85 0 0 1 111.41,27.85 V320.31 A27.85,27.85 0 0 1 83.56,348.16 H27.85 A27.85,27.85 0 0 1 0,320.31 V27.85 A27.85,27.85 0 0 1 27.85,0 Z M27.85,0 H211.68 A27.85,27.85 0 0 1 239.53,27.85 V69.63 A27.85,27.85 0 0 1 211.68,97.48 H27.85 A27.85,27.85 0 0 1 0,69.63 V27.85 A27.85,27.85 0 0 1 27.85,0 Z M27.85,125.34 H139.26 A27.85,27.85 0 0 1 167.12,153.19 V191.49 A27.85,27.85 0 0 1 139.26,219.34 H27.85 A27.85,27.85 0 0 1 0,191.49 V153.19 A27.85,27.85 0 0 1 27.85,125.34 Z" fill="#161f52"/></g><g transform="translate(-15.36 12.8)"><path d="M27.85,0 H83.56 A27.85,27.85 0 0 1 111.41,27.85 V320.31 A27.85,27.85 0 0 1 83.56,348.16 H27.85 A27.85,27.85 0 0 1 0,320.31 V27.85 A27.85,27.85 0 0 1 27.85,0 Z M27.85,0 H211.68 A27.85,27.85 0 0 1 239.53,27.85 V69.63 A27.85,27.85 0 0 1 211.68,97.48 H27.85 A27.85,27.85 0 0 1 0,69.63 V27.85 A27.85,27.85 0 0 1 27.85,0 Z M27.85,125.34 H139.26 A27.85,27.85 0 0 1 167.12,153.19 V191.49 A27.85,27.85 0 0 1 139.26,219.34 H27.85 A27.85,27.85 0 0 1 0,191.49 V153.19 A27.85,27.85 0 0 1 27.85,125.34 Z" fill="#161f52"/></g><g transform="translate(-14.85 12.37)"><path d="M27.85,0 H83.56 A27.85,27.85 0 0 1 111.41,27.85 V320.31 A27.85,27.85 0 0 1 83.56,348.16 H27.85 A27.85,27.85 0 0 1 0,320.31 V27.85 A27.85,27.85 0 0 1 27.85,0 Z M27.85,0 H211.68 A27.85,27.85 0 0 1 239.53,27.85 V69.63 A27.85,27.85 0 0 1 211.68,97.48 H27.85 A27.85,27.85 0 0 1 0,69.63 V27.85 A27.85,27.85 0 0 1 27.85,0 Z M27.85,125.34 H139.26 A27.85,27.85 0 0 1 167.12,153.19 V191.49 A27.85,27.85 0 0 1 139.26,219.34 H27.85 A27.85,27.85 0 0 1 0,191.49 V153.19 A27.85,27.85 0 0 1 27.85,125.34 Z" fill="#161f52"/></g><g transform="translate(-14.34 11.95)"><path d="M27.85,0 H83.56 A27.85,27.85 0 0 1 111.41,27.85 V320.31 A27.85,27.85 0 0 1 83.56,348.16 H27.85 A27.85,27.85 0 0 1 0,320.31 V27.85 A27.85,27.85 0 0 1 27.85,0 Z M27.85,0 H211.68 A27.85,27.85 0 0 1 239.53,27.85 V69.63 A27.85,27.85 0 0 1 211.68,97.48 H27.85 A27.85,27.85 0 0 1 0,69.63 V27.85 A27.85,27.85 0 0 1 27.85,0 Z M27.85,125.34 H139.26 A27.85,27.85 0 0 1 167.12,153.19 V191.49 A27.85,27.85 0 0 1 139.26,219.34 H27.85 A27.85,27.85 0 0 1 0,191.49 V153.19 A27.85,27.85 0 0 1 27.85,125.34 Z" fill="#161f52"/></g><g transform="translate(-13.82 11.52)"><path d="M27.85,0 H83.56 A27.85,27.85 0 0 1 111.41,27.85 V320.31 A27.85,27.85 0 0 1 83.56,348.16 H27.85 A27.85,27.85 0 0 1 0,320.31 V27.85 A27.85,27.85 0 0 1 27.85,0 Z M27.85,0 H211.68 A27.85,27.85 0 0 1 239.53,27.85 V69.63 A27.85,27.85 0 0 1 211.68,97.48 H27.85 A27.85,27.85 0 0 1 0,69.63 V27.85 A27.85,27.85 0 0 1 27.85,0 Z M27.85,125.34 H139.26 A27.85,27.85 0 0 1 167.12,153.19 V191.49 A27.85,27.85 0 0 1 139.26,219.34 H27.85 A27.85,27.85 0 0 1 0,191.49 V153.19 A27.85,27.85 0 0 1 27.85,125.34 Z" fill="#161f52"/></g><g transform="translate(-13.31 11.09)"><path d="M27.85,0 H83.56 A27.85,27.85 0 0 1 111.41,27.85 V320.31 A27.85,27.85 0 0 1 83.56,348.16 H27.85 A27.85,27.85 0 0 1 0,320.31 V27.85 A27.85,27.85 0 0 1 27.85,0 Z M27.85,0 H211.68 A27.85,27.85 0 0 1 239.53,27.85 V69.63 A27.85,27.85 0 0 1 211.68,97.48 H27.85 A27.85,27.85 0 0 1 0,69.63 V27.85 A27.85,27.85 0 0 1 27.85,0 Z M27.85,125.34 H139.26 A27.85,27.85 0 0 1 167.12,153.19 V191.49 A27.85,27.85 0 0 1 139.26,219.34 H27.85 A27.85,27.85 0 0 1 0,191.49 V153.19 A27.85,27.85 0 0 1 27.85,125.34 Z" fill="#161f52"/></g><g transform="translate(-12.8 10.67)"><path d="M27.85,0 H83.56 A27.85,27.85 0 0 1 111.41,27.85 V320.31 A27.85,27.85 0 0 1 83.56,348.16 H27.85 A27.85,27.85 0 0 1 0,320.31 V27.85 A27.85,27.85 0 0 1 27.85,0 Z M27.85,0 H211.68 A27.85,27.85 0 0 1 239.53,27.85 V69.63 A27.85,27.85 0 0 1 211.68,97.48 H27.85 A27.85,27.85 0 0 1 0,69.63 V27.85 A27.85,27.85 0 0 1 27.85,0 Z M27.85,125.34 H139.26 A27.85,27.85 0 0 1 167.12,153.19 V191.49 A27.85,27.85 0 0 1 139.26,219.34 H27.85 A27.85,27.85 0 0 1 0,191.49 V153.19 A27.85,27.85 0 0 1 27.85,125.34 Z" fill="#161f52"/></g><g transform="translate(-12.29 10.24)"><path d="M27.85,0 H83.56 A27.85,27.85 0 0 1 111.41,27.85 V320.31 A27.85,27.85 0 0 1 83.56,348.16 H27.85 A27.85,27.85 0 0 1 0,320.31 V27.85 A27.85,27.85 0 0 1 27.85,0 Z M27.85,0 H211.68 A27.85,27.85 0 0 1 239.53,27.85 V69.63 A27.85,27.85 0 0 1 211.68,97.48 H27.85 A27.85,27.85 0 0 1 0,69.63 V27.85 A27.85,27.85 0 0 1 27.85,0 Z M27.85,125.34 H139.26 A27.85,27.85 0 0 1 167.12,153.19 V191.49 A27.85,27.85 0 0 1 139.26,219.34 H27.85 A27.85,27.85 0 0 1 0,191.49 V153.19 A27.85,27.85 0 0 1 27.85,125.34 Z" fill="#161f52"/></g><g transform="translate(-11.78 9.81)"><path d="M27.85,0 H83.56 A27.85,27.85 0 0 1 111.41,27.85 V320.31 A27.85,27.85 0 0 1 83.56,348.16 H27.85 A27.85,27.85 0 0 1 0,320.31 V27.85 A27.85,27.85 0 0 1 27.85,0 Z M27.85,0 H211.68 A27.85,27.85 0 0 1 239.53,27.85 V69.63 A27.85,27.85 0 0 1 211.68,97.48 H27.85 A27.85,27.85 0 0 1 0,69.63 V27.85 A27.85,27.85 0 0 1 27.85,0 Z M27.85,125.34 H139.26 A27.85,27.85 0 0 1 167.12,153.19 V191.49 A27.85,27.85 0 0 1 139.26,219.34 H27.85 A27.85,27.85 0 0 1 0,191.49 V153.19 A27.85,27.85 0 0 1 27.85,125.34 Z" fill="#161f52"/></g><g transform="translate(-11.26 9.39)"><path d="M27.85,0 H83.56 A27.85,27.85 0 0 1 111.41,27.85 V320.31 A27.85,27.85 0 0 1 83.56,348.16 H27.85 A27.85,27.85 0 0 1 0,320.31 V27.85 A27.85,27.85 0 0 1 27.85,0 Z M27.85,0 H211.68 A27.85,27.85 0 0 1 239.53,27.85 V69.63 A27.85,27.85 0 0 1 211.68,97.48 H27.85 A27.85,27.85 0 0 1 0,69.63 V27.85 A27.85,27.85 0 0 1 27.85,0 Z M27.85,125.34 H139.26 A27.85,27.85 0 0 1 167.12,153.19 V191.49 A27.85,27.85 0 0 1 139.26,219.34 H27.85 A27.85,27.85 0 0 1 0,191.49 V153.19 A27.85,27.85 0 0 1 27.85,125.34 Z" fill="#161f52"/></g><g transform="translate(-10.75 8.96)"><path d="M27.85,0 H83.56 A27.85,27.85 0 0 1 111.41,27.85 V320.31 A27.85,27.85 0 0 1 83.56,348.16 H27.85 A27.85,27.85 0 0 1 0,320.31 V27.85 A27.85,27.85 0 0 1 27.85,0 Z M27.85,0 H211.68 A27.85,27.85 0 0 1 239.53,27.85 V69.63 A27.85,27.85 0 0 1 211.68,97.48 H27.85 A27.85,27.85 0 0 1 0,69.63 V27.85 A27.85,27.85 0 0 1 27.85,0 Z M27.85,125.34 H139.26 A27.85,27.85 0 0 1 167.12,153.19 V191.49 A27.85,27.85 0 0 1 139.26,219.34 H27.85 A27.85,27.85 0 0 1 0,191.49 V153.19 A27.85,27.85 0 0 1 27.85,125.34 Z" fill="#161f52"/></g><g transform="translate(-10.24 8.53)"><path d="M27.85,0 H83.56 A27.85,27.85 0 0 1 111.41,27.85 V320.31 A27.85,27.85 0 0 1 83.56,348.16 H27.85 A27.85,27.85 0 0 1 0,320.31 V27.85 A27.85,27.85 0 0 1 27.85,0 Z M27.85,0 H211.68 A27.85,27.85 0 0 1 239.53,27.85 V69.63 A27.85,27.85 0 0 1 211.68,97.48 H27.85 A27.85,27.85 0 0 1 0,69.63 V27.85 A27.85,27.85 0 0 1 27.85,0 Z M27.85,125.34 H139.26 A27.85,27.85 0 0 1 167.12,153.19 V191.49 A27.85,27.85 0 0 1 139.26,219.34 H27.85 A27.85,27.85 0 0 1 0,191.49 V153.19 A27.85,27.85 0 0 1 27.85,125.34 Z" fill="#161f52"/></g><g transform="translate(-9.73 8.11)"><path d="M27.85,0 H83.56 A27.85,27.85 0 0 1 111.41,27.85 V320.31 A27.85,27.85 0 0 1 83.56,348.16 H27.85 A27.85,27.85 0 0 1 0,320.31 V27.85 A27.85,27.85 0 0 1 27.85,0 Z M27.85,0 H211.68 A27.85,27.85 0 0 1 239.53,27.85 V69.63 A27.85,27.85 0 0 1 211.68,97.48 H27.85 A27.85,27.85 0 0 1 0,69.63 V27.85 A27.85,27.85 0 0 1 27.85,0 Z M27.85,125.34 H139.26 A27.85,27.85 0 0 1 167.12,153.19 V191.49 A27.85,27.85 0 0 1 139.26,219.34 H27.85 A27.85,27.85 0 0 1 0,191.49 V153.19 A27.85,27.85 0 0 1 27.85,125.34 Z" fill="#161f52"/></g><g transform="translate(-9.22 7.68)"><path d="M27.85,0 H83.56 A27.85,27.85 0 0 1 111.41,27.85 V320.31 A27.85,27.85 0 0 1 83.56,348.16 H27.85 A27.85,27.85 0 0 1 0,320.31 V27.85 A27.85,27.85 0 0 1 27.85,0 Z M27.85,0 H211.68 A27.85,27.85 0 0 1 239.53,27.85 V69.63 A27.85,27.85 0 0 1 211.68,97.48 H27.85 A27.85,27.85 0 0 1 0,69.63 V27.85 A27.85,27.85 0 0 1 27.85,0 Z M27.85,125.34 H139.26 A27.85,27.85 0 0 1 167.12,153.19 V191.49 A27.85,27.85 0 0 1 139.26,219.34 H27.85 A27.85,27.85 0 0 1 0,191.49 V153.19 A27.85,27.85 0 0 1 27.85,125.34 Z" fill="#161f52"/></g><g transform="translate(-8.7 7.25)"><path d="M27.85,0 H83.56 A27.85,27.85 0 0 1 111.41,27.85 V320.31 A27.85,27.85 0 0 1 83.56,348.16 H27.85 A27.85,27.85 0 0 1 0,320.31 V27.85 A27.85,27.85 0 0 1 27.85,0 Z M27.85,0 H211.68 A27.85,27.85 0 0 1 239.53,27.85 V69.63 A27.85,27.85 0 0 1 211.68,97.48 H27.85 A27.85,27.85 0 0 1 0,69.63 V27.85 A27.85,27.85 0 0 1 27.85,0 Z M27.85,125.34 H139.26 A27.85,27.85 0 0 1 167.12,153.19 V191.49 A27.85,27.85 0 0 1 139.26,219.34 H27.85 A27.85,27.85 0 0 1 0,191.49 V153.19 A27.85,27.85 0 0 1 27.85,125.34 Z" fill="#161f52"/></g><g transform="translate(-8.19 6.83)"><path d="M27.85,0 H83.56 A27.85,27.85 0 0 1 111.41,27.85 V320.31 A27.85,27.85 0 0 1 83.56,348.16 H27.85 A27.85,27.85 0 0 1 0,320.31 V27.85 A27.85,27.85 0 0 1 27.85,0 Z M27.85,0 H211.68 A27.85,27.85 0 0 1 239.53,27.85 V69.63 A27.85,27.85 0 0 1 211.68,97.48 H27.85 A27.85,27.85 0 0 1 0,69.63 V27.85 A27.85,27.85 0 0 1 27.85,0 Z M27.85,125.34 H139.26 A27.85,27.85 0 0 1 167.12,153.19 V191.49 A27.85,27.85 0 0 1 139.26,219.34 H27.85 A27.85,27.85 0 0 1 0,191.49 V153.19 A27.85,27.85 0 0 1 27.85,125.34 Z" fill="#161f52"/></g><g transform="translate(-7.68 6.4)"><path d="M27.85,0 H83.56 A27.85,27.85 0 0 1 111.41,27.85 V320.31 A27.85,27.85 0 0 1 83.56,348.16 H27.85 A27.85,27.85 0 0 1 0,320.31 V27.85 A27.85,27.85 0 0 1 27.85,0 Z M27.85,0 H211.68 A27.85,27.85 0 0 1 239.53,27.85 V69.63 A27.85,27.85 0 0 1 211.68,97.48 H27.85 A27.85,27.85 0 0 1 0,69.63 V27.85 A27.85,27.85 0 0 1 27.85,0 Z M27.85,125.34 H139.26 A27.85,27.85 0 0 1 167.12,153.19 V191.49 A27.85,27.85 0 0 1 139.26,219.34 H27.85 A27.85,27.85 0 0 1 0,191.49 V153.19 A27.85,27.85 0 0 1 27.85,125.34 Z" fill="#161f52"/></g><g transform="translate(-7.17 5.97)"><path d="M27.85,0 H83.56 A27.85,27.85 0 0 1 111.41,27.85 V320.31 A27.85,27.85 0 0 1 83.56,348.16 H27.85 A27.85,27.85 0 0 1 0,320.31 V27.85 A27.85,27.85 0 0 1 27.85,0 Z M27.85,0 H211.68 A27.85,27.85 0 0 1 239.53,27.85 V69.63 A27.85,27.85 0 0 1 211.68,97.48 H27.85 A27.85,27.85 0 0 1 0,69.63 V27.85 A27.85,27.85 0 0 1 27.85,0 Z M27.85,125.34 H139.26 A27.85,27.85 0 0 1 167.12,153.19 V191.49 A27.85,27.85 0 0 1 139.26,219.34 H27.85 A27.85,27.85 0 0 1 0,191.49 V153.19 A27.85,27.85 0 0 1 27.85,125.34 Z" fill="#161f52"/></g><g transform="translate(-6.66 5.55)"><path d="M27.85,0 H83.56 A27.85,27.85 0 0 1 111.41,27.85 V320.31 A27.85,27.85 0 0 1 83.56,348.16 H27.85 A27.85,27.85 0 0 1 0,320.31 V27.85 A27.85,27.85 0 0 1 27.85,0 Z M27.85,0 H211.68 A27.85,27.85 0 0 1 239.53,27.85 V69.63 A27.85,27.85 0 0 1 211.68,97.48 H27.85 A27.85,27.85 0 0 1 0,69.63 V27.85 A27.85,27.85 0 0 1 27.85,0 Z M27.85,125.34 H139.26 A27.85,27.85 0 0 1 167.12,153.19 V191.49 A27.85,27.85 0 0 1 139.26,219.34 H27.85 A27.85,27.85 0 0 1 0,191.49 V153.19 A27.85,27.85 0 0 1 27.85,125.34 Z" fill="#161f52"/></g><g transform="translate(-6.14 5.12)"><path d="M27.85,0 H83.56 A27.85,27.85 0 0 1 111.41,27.85 V320.31 A27.85,27.85 0 0 1 83.56,348.16 H27.85 A27.85,27.85 0 0 1 0,320.31 V27.85 A27.85,27.85 0 0 1 27.85,0 Z M27.85,0 H211.68 A27.85,27.85 0 0 1 239.53,27.85 V69.63 A27.85,27.85 0 0 1 211.68,97.48 H27.85 A27.85,27.85 0 0 1 0,69.63 V27.85 A27.85,27.85 0 0 1 27.85,0 Z M27.85,125.34 H139.26 A27.85,27.85 0 0 1 167.12,153.19 V191.49 A27.85,27.85 0 0 1 139.26,219.34 H27.85 A27.85,27.85 0 0 1 0,191.49 V153.19 A27.85,27.85 0 0 1 27.85,125.34 Z" fill="#161f52"/></g><g transform="translate(-5.63 4.69)"><path d="M27.85,0 H83.56 A27.85,27.85 0 0 1 111.41,27.85 V320.31 A27.85,27.85 0 0 1 83.56,348.16 H27.85 A27.85,27.85 0 0 1 0,320.31 V27.85 A27.85,27.85 0 0 1 27.85,0 Z M27.85,0 H211.68 A27.85,27.85 0 0 1 239.53,27.85 V69.63 A27.85,27.85 0 0 1 211.68,97.48 H27.85 A27.85,27.85 0 0 1 0,69.63 V27.85 A27.85,27.85 0 0 1 27.85,0 Z M27.85,125.34 H139.26 A27.85,27.85 0 0 1 167.12,153.19 V191.49 A27.85,27.85 0 0 1 139.26,219.34 H27.85 A27.85,27.85 0 0 1 0,191.49 V153.19 A27.85,27.85 0 0 1 27.85,125.34 Z" fill="#161f52"/></g><g transform="translate(-5.12 4.27)"><path d="M27.85,0 H83.56 A27.85,27.85 0 0 1 111.41,27.85 V320.31 A27.85,27.85 0 0 1 83.56,348.16 H27.85 A27.85,27.85 0 0 1 0,320.31 V27.85 A27.85,27.85 0 0 1 27.85,0 Z M27.85,0 H211.68 A27.85,27.85 0 0 1 239.53,27.85 V69.63 A27.85,27.85 0 0 1 211.68,97.48 H27.85 A27.85,27.85 0 0 1 0,69.63 V27.85 A27.85,27.85 0 0 1 27.85,0 Z M27.85,125.34 H139.26 A27.85,27.85 0 0 1 167.12,153.19 V191.49 A27.85,27.85 0 0 1 139.26,219.34 H27.85 A27.85,27.85 0 0 1 0,191.49 V153.19 A27.85,27.85 0 0 1 27.85,125.34 Z" fill="#161f52"/></g><g transform="translate(-4.61 3.84)"><path d="M27.85,0 H83.56 A27.85,27.85 0 0 1 111.41,27.85 V320.31 A27.85,27.85 0 0 1 83.56,348.16 H27.85 A27.85,27.85 0 0 1 0,320.31 V27.85 A27.85,27.85 0 0 1 27.85,0 Z M27.85,0 H211.68 A27.85,27.85 0 0 1 239.53,27.85 V69.63 A27.85,27.85 0 0 1 211.68,97.48 H27.85 A27.85,27.85 0 0 1 0,69.63 V27.85 A27.85,27.85 0 0 1 27.85,0 Z M27.85,125.34 H139.26 A27.85,27.85 0 0 1 167.12,153.19 V191.49 A27.85,27.85 0 0 1 139.26,219.34 H27.85 A27.85,27.85 0 0 1 0,191.49 V153.19 A27.85,27.85 0 0 1 27.85,125.34 Z" fill="#161f52"/></g><g transform="translate(-4.1 3.41)"><path d="M27.85,0 H83.56 A27.85,27.85 0 0 1 111.41,27.85 V320.31 A27.85,27.85 0 0 1 83.56,348.16 H27.85 A27.85,27.85 0 0 1 0,320.31 V27.85 A27.85,27.85 0 0 1 27.85,0 Z M27.85,0 H211.68 A27.85,27.85 0 0 1 239.53,27.85 V69.63 A27.85,27.85 0 0 1 211.68,97.48 H27.85 A27.85,27.85 0 0 1 0,69.63 V27.85 A27.85,27.85 0 0 1 27.85,0 Z M27.85,125.34 H139.26 A27.85,27.85 0 0 1 167.12,153.19 V191.49 A27.85,27.85 0 0 1 139.26,219.34 H27.85 A27.85,27.85 0 0 1 0,191.49 V153.19 A27.85,27.85 0 0 1 27.85,125.34 Z" fill="#161f52"/></g><g transform="translate(-3.58 2.99)"><path d="M27.85,0 H83.56 A27.85,27.85 0 0 1 111.41,27.85 V320.31 A27.85,27.85 0 0 1 83.56,348.16 H27.85 A27.85,27.85 0 0 1 0,320.31 V27.85 A27.85,27.85 0 0 1 27.85,0 Z M27.85,0 H211.68 A27.85,27.85 0 0 1 239.53,27.85 V69.63 A27.85,27.85 0 0 1 211.68,97.48 H27.85 A27.85,27.85 0 0 1 0,69.63 V27.85 A27.85,27.85 0 0 1 27.85,0 Z M27.85,125.34 H139.26 A27.85,27.85 0 0 1 167.12,153.19 V191.49 A27.85,27.85 0 0 1 139.26,219.34 H27.85 A27.85,27.85 0 0 1 0,191.49 V153.19 A27.85,27.85 0 0 1 27.85,125.34 Z" fill="#161f52"/></g><g transform="translate(-3.07 2.56)"><path d="M27.85,0 H83.56 A27.85,27.85 0 0 1 111.41,27.85 V320.31 A27.85,27.85 0 0 1 83.56,348.16 H27.85 A27.85,27.85 0 0 1 0,320.31 V27.85 A27.85,27.85 0 0 1 27.85,0 Z M27.85,0 H211.68 A27.85,27.85 0 0 1 239.53,27.85 V69.63 A27.85,27.85 0 0 1 211.68,97.48 H27.85 A27.85,27.85 0 0 1 0,69.63 V27.85 A27.85,27.85 0 0 1 27.85,0 Z M27.85,125.34 H139.26 A27.85,27.85 0 0 1 167.12,153.19 V191.49 A27.85,27.85 0 0 1 139.26,219.34 H27.85 A27.85,27.85 0 0 1 0,191.49 V153.19 A27.85,27.85 0 0 1 27.85,125.34 Z" fill="#161f52"/></g><g transform="translate(-2.56 2.13)"><path d="M27.85,0 H83.56 A27.85,27.85 0 0 1 111.41,27.85 V320.31 A27.85,27.85 0 0 1 83.56,348.16 H27.85 A27.85,27.85 0 0 1 0,320.31 V27.85 A27.85,27.85 0 0 1 27.85,0 Z M27.85,0 H211.68 A27.85,27.85 0 0 1 239.53,27.85 V69.63 A27.85,27.85 0 0 1 211.68,97.48 H27.85 A27.85,27.85 0 0 1 0,69.63 V27.85 A27.85,27.85 0 0 1 27.85,0 Z M27.85,125.34 H139.26 A27.85,27.85 0 0 1 167.12,153.19 V191.49 A27.85,27.85 0 0 1 139.26,219.34 H27.85 A27.85,27.85 0 0 1 0,191.49 V153.19 A27.85,27.85 0 0 1 27.85,125.34 Z" fill="#161f52"/></g><g transform="translate(-2.05 1.71)"><path d="M27.85,0 H83.56 A27.85,27.85 0 0 1 111.41,27.85 V320.31 A27.85,27.85 0 0 1 83.56,348.16 H27.85 A27.85,27.85 0 0 1 0,320.31 V27.85 A27.85,27.85 0 0 1 27.85,0 Z M27.85,0 H211.68 A27.85,27.85 0 0 1 239.53,27.85 V69.63 A27.85,27.85 0 0 1 211.68,97.48 H27.85 A27.85,27.85 0 0 1 0,69.63 V27.85 A27.85,27.85 0 0 1 27.85,0 Z M27.85,125.34 H139.26 A27.85,27.85 0 0 1 167.12,153.19 V191.49 A27.85,27.85 0 0 1 139.26,219.34 H27.85 A27.85,27.85 0 0 1 0,191.49 V153.19 A27.85,27.85 0 0 1 27.85,125.34 Z" fill="#161f52"/></g><g transform="translate(-1.54 1.28)"><path d="M27.85,0 H83.56 A27.85,27.85 0 0 1 111.41,27.85 V320.31 A27.85,27.85 0 0 1 83.56,348.16 H27.85 A27.85,27.85 0 0 1 0,320.31 V27.85 A27.85,27.85 0 0 1 27.85,0 Z M27.85,0 H211.68 A27.85,27.85 0 0 1 239.53,27.85 V69.63 A27.85,27.85 0 0 1 211.68,97.48 H27.85 A27.85,27.85 0 0 1 0,69.63 V27.85 A27.85,27.85 0 0 1 27.85,0 Z M27.85,125.34 H139.26 A27.85,27.85 0 0 1 167.12,153.19 V191.49 A27.85,27.85 0 0 1 139.26,219.34 H27.85 A27.85,27.85 0 0 1 0,191.49 V153.19 A27.85,27.85 0 0 1 27.85,125.34 Z" fill="#161f52"/></g><g transform="translate(-1.02 0.85)"><path d="M27.85,0 H83.56 A27.85,27.85 0 0 1 111.41,27.85 V320.31 A27.85,27.85 0 0 1 83.56,348.16 H27.85 A27.85,27.85 0 0 1 0,320.31 V27.85 A27.85,27.85 0 0 1 27.85,0 Z M27.85,0 H211.68 A27.85,27.85 0 0 1 239.53,27.85 V69.63 A27.85,27.85 0 0 1 211.68,97.48 H27.85 A27.85,27.85 0 0 1 0,69.63 V27.85 A27.85,27.85 0 0 1 27.85,0 Z M27.85,125.34 H139.26 A27.85,27.85 0 0 1 167.12,153.19 V191.49 A27.85,27.85 0 0 1 139.26,219.34 H27.85 A27.85,27.85 0 0 1 0,191.49 V153.19 A27.85,27.85 0 0 1 27.85,125.34 Z" fill="#161f52"/></g><g transform="translate(-0.51 0.43)"><path d="M27.85,0 H83.56 A27.85,27.85 0 0 1 111.41,27.85 V320.31 A27.85,27.85 0 0 1 83.56,348.16 H27.85 A27.85,27.85 0 0 1 0,320.31 V27.85 A27.85,27.85 0 0 1 27.85,0 Z M27.85,0 H211.68 A27.85,27.85 0 0 1 239.53,27.85 V69.63 A27.85,27.85 0 0 1 211.68,97.48 H27.85 A27.85,27.85 0 0 1 0,69.63 V27.85 A27.85,27.85 0 0 1 27.85,0 Z M27.85,125.34 H139.26 A27.85,27.85 0 0 1 167.12,153.19 V191.49 A27.85,27.85 0 0 1 139.26,219.34 H27.85 A27.85,27.85 0 0 1 0,191.49 V153.19 A27.85,27.85 0 0 1 27.85,125.34 Z" fill="#161f52"/></g><path d="M27.85,0 H83.56 A27.85,27.85 0 0 1 111.41,27.85 V320.31 A27.85,27.85 0 0 1 83.56,348.16 H27.85 A27.85,27.85 0 0 1 0,320.31 V27.85 A27.85,27.85 0 0 1 27.85,0 Z M27.85,0 H211.68 A27.85,27.85 0 0 1 239.53,27.85 V69.63 A27.85,27.85 0 0 1 211.68,97.48 H27.85 A27.85,27.85 0 0 1 0,69.63 V27.85 A27.85,27.85 0 0 1 27.85,0 Z M27.85,125.34 H139.26 A27.85,27.85 0 0 1 167.12,153.19 V191.49 A27.85,27.85 0 0 1 139.26,219.34 H27.85 A27.85,27.85 0 0 1 0,191.49 V153.19 A27.85,27.85 0 0 1 27.85,125.34 Z" fill="#ffffff"/></g></g></svg>