<svg width="512" height="512" viewBox="0 0 512 512" xmlns="http://www.w3.org/2000/svg">
  <path 
    fill="#49ACD7" 
    fill-rule="evenodd" 
    d="M427 0H85C38.0558 0 0 38.0558 0 85V427C0 473.944 38.0558 512 85 512H427C473.944 512 512 473.944 512 427V85C512 38.0558 473.944 0 427 0Z M406 429H322.8C304.36 396.558 287.662 368.518 272.706 344.879C257.896 321.24 241.779 296.868 224.355 271.762H192.774V381.804C192.774 387.51 193.572 392.564 195.169 396.965C196.767 401.204 200.179 404.465 205.406 406.747C208.02 407.888 212.593 408.948 219.127 409.926C225.661 410.904 231.179 411.475 235.68 411.638V429H105V411.638C108.485 411.312 113.494 410.741 120.028 409.926C126.707 409.111 131.354 408.051 133.967 406.747C138.323 404.628 141.445 401.53 143.333 397.455C145.366 393.379 146.382 388.162 146.382 381.804V130.908C146.382 125.202 145.656 120.148 144.204 115.746C142.752 111.345 139.34 108.003 133.967 105.72C130.337 104.253 125.618 102.949 119.81 101.808C114.002 100.503 109.066 99.6883 105 99.3622V82H247.659C260.727 82 272.997 83.5487 284.467 86.6462C295.938 89.5807 306.32 94.3899 315.613 101.074C324.615 107.595 331.803 116.154 337.175 126.751C342.548 137.184 345.234 149.819 345.234 164.654C345.234 178.022 343.419 189.841 339.789 200.112C336.159 210.383 330.786 219.268 323.671 226.767C317.137 233.777 309.297 239.89 300.149 245.107C291.001 250.161 280.91 254.481 269.875 258.068C285.121 280.728 297.753 299.802 307.772 315.29C317.936 330.777 330.351 349.607 345.016 371.778C351.405 381.56 357.14 388.814 362.222 393.542C367.449 398.107 372.604 401.856 377.686 404.791C381.461 406.91 386.18 408.54 391.843 409.681C397.506 410.823 402.225 411.475 406 411.638V429ZM291.437 170.278C291.437 149.248 286.065 132.619 275.32 120.393C264.575 108.003 249.402 101.808 229.8 101.808H192.774V250.732H221.305C241.343 250.732 258.041 243.558 271.399 229.212C284.758 214.703 291.437 195.058 291.437 170.278Z" 
  />
</svg>