<svg xmlns="http://www.w3.org/2000/svg" width="294.093" height="607.132" viewBox="0 0 294.093 607.132"><g data-name="Group 1169"><g transform="translate(4.437)" fill="none" stroke="#000" stroke-width="4"><rect width="285.105" height="607.132" rx="38.8" stroke="none"/><rect x="2" y="2" width="281.105" height="603.132" rx="36.8"/></g><path data-name="Union 35" d="M4 223.009a4 4 0 01-4-4v-36.374a4 4 0 014-4h.552v44.375zm285.542-14.792V139.95h.552a4 4 0 014 4v60.269a4 4 0 01-4 4zM4 168.395a4 4 0 01-4-4V128.02a4 4 0 014-4h.552v44.375zm0-63.717a4 4 0 01-4-4V84.784a4 4 0 014-4h.552v23.894z"/></g></svg>