<?xml version="1.0" encoding="UTF-8"?>
<svg xmlns="http://www.w3.org/2000/svg" viewBox="0 0 667.7 656.0" width="667.7" height="656.0">
  <g transform="matrix(1,0,-0.230868,1,-11.00,562.64)">
    <path d="M188.928 91.392L188.928 91.392L69.888 91.392Q34.560 91.392 34.560 56.064L34.560 56.064L34.560-441.600Q34.560-460.800 45.312-470.016L45.312-470.016L144.384-553.728Q152.832-560.640 168.960-560.640L168.960-560.640L511.488-560.640Q546.816-560.640 546.816-525.312L546.816-525.312L546.816-433.920Q546.816-414.720 536.064-405.504L536.064-405.504L450.048-334.080Q484.608-334.080 484.608-298.752L484.608-298.752L484.608-206.592Q484.608-187.392 473.856-178.176L473.856-178.176L374.016-95.232Q366.336-87.552 350.208-87.552L350.208-87.552L323.328-87.552L323.328-27.648Q323.328-8.448 312.576 0.768L312.576 0.768L212.736 83.712Q205.056 91.392 188.928 91.392ZM168.960 0L288 0Q315.648 0 315.648-27.648L315.648-27.648L315.648-178.944L449.280-178.944Q476.928-178.944 476.928-206.592L476.928-206.592L476.928-298.752Q476.928-326.400 449.280-326.400L449.280-326.400L315.648-326.400L315.648-406.272L511.488-406.272Q539.136-406.272 539.136-433.920L539.136-433.920L539.136-525.312Q539.136-552.960 511.488-552.960L511.488-552.960L168.960-552.960Q141.312-552.960 141.312-525.312L141.312-525.312L141.312-27.648Q141.312 0 168.960 0L168.960 0ZM232.704-69.120L225.024-69.120L225.024-483.840L470.016-483.840L470.016-476.160L232.704-476.160L232.704-256.512L407.808-256.512L407.808-248.832L232.704-248.832L232.704-69.120Z" fill="#2a3d8c" fill-rule="nonzero"/>
    <path d="M188.928 91.392L188.928 91.392L69.888 91.392Q34.560 91.392 34.560 56.064L34.560 56.064L34.560-441.600Q34.560-460.800 45.312-470.016L45.312-470.016L144.384-553.728Q152.832-560.640 168.960-560.640L168.960-560.640L511.488-560.640Q546.816-560.640 546.816-525.312L546.816-525.312L546.816-433.920Q546.816-414.720 536.064-405.504L536.064-405.504L450.048-334.080Q484.608-334.080 484.608-298.752L484.608-298.752L484.608-206.592Q484.608-187.392 473.856-178.176L473.856-178.176L374.016-95.232Q366.336-87.552 350.208-87.552L350.208-87.552L323.328-87.552L323.328-27.648Q323.328-8.448 312.576 0.768L312.576 0.768L212.736 83.712Q205.056 91.392 188.928 91.392ZM168.960 0L288 0Q315.648 0 315.648-27.648L315.648-27.648L315.648-178.944L449.280-178.944Q476.928-178.944 476.928-206.592L476.928-206.592L476.928-298.752Q476.928-326.400 449.280-326.400L449.280-326.400L315.648-326.400L315.648-406.272L511.488-406.272Q539.136-406.272 539.136-433.920L539.136-433.920L539.136-525.312Q539.136-552.960 511.488-552.960L511.488-552.960L168.960-552.960Q141.312-552.960 141.312-525.312L141.312-525.312L141.312-27.648Q141.312 0 168.960 0L168.960 0ZM232.704-69.120L225.024-69.120L225.024-483.840L470.016-483.840L470.016-476.160L232.704-476.160L232.704-256.512L407.808-256.512L407.808-248.832L232.704-248.832L232.704-69.120Z" fill="#ffffff" fill-rule="evenodd"/>
    
    
  </g>
</svg>