<svg xmlns="http://www.w3.org/2000/svg" width="29.719" height="36.367" viewBox="0 0 29.719 36.367">
  <g id="Group_1128" data-name="Group 1128" transform="translate(-300.001 -277.839)">
    <g id="Group_1127" data-name="Group 1127" transform="translate(300.001 277.839)">
      <path id="Path_1280" data-name="Path 1280" d="M301.534,340.441c-3.074,5.335-1.12,13.432,2.28,18.341,1.7,2.455,3.415,4.658,5.769,4.658.044,0,.089,0,.134,0a7.117,7.117,0,0,0,2.678-.713,7.329,7.329,0,0,1,3.171-.752,6.9,6.9,0,0,1,3.019.727,6.393,6.393,0,0,0,2.892.693c2.651-.049,4.279-2.427,5.714-4.524a20.042,20.042,0,0,0,2.5-5.128l.01-.033a.3.3,0,0,0-.158-.366l-.021-.009a7.6,7.6,0,0,1-4.6-6.959,7.822,7.822,0,0,1,3.7-6.539l.029-.018a.3.3,0,0,0,.084-.419,8.6,8.6,0,0,0-6.765-3.674c-.193-.019-.391-.029-.59-.029a11.8,11.8,0,0,0-4.246,1.06,6.817,6.817,0,0,1-2.034.608,6.652,6.652,0,0,1-2.1-.615,10.181,10.181,0,0,0-3.708-.942h-.094a9.093,9.093,0,0,0-7.654,4.633Zm0,0" transform="translate(-300.001 -327.073)" fill="#fff"/>
      <path id="Path_1281" data-name="Path 1281" d="M404.568,277.839a8.305,8.305,0,0,0-5.481,2.812,7.777,7.777,0,0,0-1.969,5.768.3.3,0,0,0,.272.258c.127.01.257.015.385.015a7.022,7.022,0,0,0,5.174-2.654,8.2,8.2,0,0,0,1.928-5.934.3.3,0,0,0-.309-.265Zm0,0" transform="translate(-382.602 -277.839)" fill="#fff"/>
    </g>
  </g>
</svg>
