<svg xmlns="http://www.w3.org/2000/svg" width="354.646" height="345.545" viewBox="0 0 354.646 345.545">
  <g id="Group_1173" data-name="Group 1173" transform="translate(74.237 64.053)">
    <path id="Path_1302" data-name="Path 1302" d="M85.624,193.756H331.269c10.836,9.583,18.9,22.573,19.4,37.172.717,20.963-13.861,39.427-30.164,52.622s-35.219,23.427-49.067,39.179c-14.152,16.086-21.893,36.636-32.094,55.474s-24.536,37.327-45.073,43.417c-13,3.855-27.152,2.217-39.983-2.182s-24.575-11.418-36.145-18.5c-10.931-6.693-21.867-13.52-32.518-21.124Z" transform="translate(-85.624 -193.756)" fill="#ffecee"/>
    <path id="Path_1303" data-name="Path 1303" d="M192.313,39.607l66.715,165.125A114,114,0,0,0,248.6,214.6c-14.053,15.982-21.74,36.4-31.869,55.113s-24.364,37.085-44.757,43.134c-12.913,3.83-26.962,2.2-39.7-2.168s-24.4-11.344-35.892-18.378c-19.772-12.112-39.474-24.665-56.35-40.569S9.11,216.225,3.051,193.835-.29,146.081,13.392,127.357C20.3,117.909,29.154,109.565,38.4,101.79Z" transform="translate(-109.765 162.473) rotate(-68)" fill="none" stroke="#273437" stroke-width="1.5"/>
  </g>
</svg>
