<svg xmlns="http://www.w3.org/2000/svg" width="982.613" height="749.411" viewBox="0 0 982.613 749.411">
  <g id="Group_1168" data-name="Group 1168" transform="translate(-982.112 64.137)">
    <path id="Path_1086" data-name="Path 1086" d="M750.536,739.308l818.47-57.233c19.535-151.006-65.076-302.192-187.382-320.408-163.4-24.336-69.025-263.331-338.339-299.054-130.4-17.3-243.156-2.153-337.583,35.542Z" transform="matrix(-0.998, -0.07, 0.07, -0.998, 2617.137, 789.862)" fill="#ffecee"/>
    <path id="Path_1304" data-name="Path 1304" d="M679.012,734.286,1570.3,671.96c14.295-147.283-69.262-292.507-188.678-310.293-163.4-24.336-69.025-263.331-338.339-299.054-163.2-21.648-299.609,7.534-406.471,68.224Z" transform="matrix(-0.998, -0.07, 0.07, -0.998, 2547.137, 778.862)" fill="none" stroke="#273437" stroke-width="1.5"/>
  </g>
</svg>
